<?xml version="1.0" encoding="utf-8"?>
<!-- Generator: Adobe Illustrator 15.1.0, SVG Export Plug-In . SVG Version: 6.00 Build 0)  -->
<!DOCTYPE svg PUBLIC "-//W3C//DTD SVG 1.1//EN" "http://www.w3.org/Graphics/SVG/1.1/DTD/svg11.dtd">
<svg version="1.1" id="Layer_1" xmlns="http://www.w3.org/2000/svg" xmlns:xlink="http://www.w3.org/1999/xlink" x="0px" y="0px"
	 width="108px" height="108px" viewBox="0 0 108 108" enable-background="new 0 0 108 108" xml:space="preserve">
<g>
	<path fill="#FFFFFF" d="M103.79,32.36l-9.63-15.1L80.14,6.11L70.33,2.5l-6.66,6.83l2.66,5.34l2.84,1l-5.67,1.67l-8.499,1.326
		L54,24.34l0.66,7.51l-5.326,2.816l-6,0.333L40,37l1,8.167l2.667,7.167l-4.34-5.62l-0.494-3.881L37.667,37.5l-4.919,12.254
		L30.33,52.33l-9.5,0.84L16.17,55l-5.336,2.333l1.496,1.753L14.5,60h4l-5.17,1.756l-2.66-1.383L9,58l-2.833-1.167l-2-2.333
		l0.167-4.334l2,4.5L10,56l9.83-4.92L30,49.541L36.167,36l5.167-3.167L48.5,32.32l3.554-1.538l-0.964-6.762l1.71-7.19l7.53-1.33
		L64,15.17l-3.5-6.5l7.39-6.91l-4.62-1.64l-17.91-0.2l-17,5.64l-14.25,10.85l-9.96,14.88l-4.58,17.32l0.62,8.581L8,66.33l12.67-1.66
		l10.16-1.34l13-7.5l8,0.84l5.34-5l7.497-0.836l2.834-1.5l3.833-5.5l1.667-9l1.166,8.833l-2.166,5.167l0,0l-4.334,4.332L58,54
		l-3.5,4L54,59.67L59.17,62l14.34,1.17l8.83-5.59l1.83-8.75l-0.34-13.66l2.67,12.58l-2,11.75l-11,6l-16.17-1l-5.83-3.833
		L50.17,59.67l-6.34-0.84l-3.5,1.34l-6.217,5.262L41.5,77.33l13,1.67l10.17-4.83l7.16-0.5l5.84-3.17l6.5-0.17l6.89,1.32l9.11-1.82
		l4.16-13.33l1.7-14.879L103.79,32.36z M15.5,35.667C15,35.497,8.334,38,8.334,38l6.833-4.167l5,0.833l-0.094-6.502l1.427-5.498
		l6.667-4.333L23.334,23.5l-1.24,3.342L22,31.834v2c0,0,3-1.163,3-1.663S25,27,25,27l2.67-0.83l3.5-0.75l-1.5-5.59l1.5-6.33l6.164-3
		L43,9.167L46.834,8.5l6.334,0.167l-5.667,1.5L38.667,12L33,15.5l-1.5,5.33L33.33,25l-0.232,1.991l-5.931,1.175l-0.337,2.664
		l-0.163,3.336L23.33,35.5l-1.496,1.333L21,39.831l0.17,3.919L19.67,43H13l-4.166,2l2.333-3l2.667-1l5-0.167l0.578-4.046
		C19.412,36.788,16,35.836,15.5,35.667z M60.31,42.32l-4.459,3.27l-4.35,0.577l-3.667-2.5L54,43.5l3-1.17l2-3.41l3.501-8.587
		L60.31,42.32z M96.83,49.67l-3.996,11.663L95.83,45.5l-0.33-8l-3-7l-4.67-5.67L83,23.17l-4.32,0.33l-5.513,0.666L80.84,21
		l4.49,0.33l6.17,4l4.93,6.84l2.063,9.629L96.83,49.67z"/>
	<polygon fill="#FFFFFF" points="66.834,77 73.334,75.833 78.501,72.5 84.001,72.167 90.001,74.167 96.432,73.226 95.167,78.916 
		87.167,84 75,84 67.667,80.333 	"/>
	<polygon fill="#FFFFFF" points="78.685,86 80.334,89 83,89 82.167,86 	"/>
</g>
</svg>
