<?xml version="1.0" encoding="utf-8"?>
<!-- Generator: Adobe Illustrator 15.1.0, SVG Export Plug-In . SVG Version: 6.00 Build 0)  -->
<!DOCTYPE svg PUBLIC "-//W3C//DTD SVG 1.1//EN" "http://www.w3.org/Graphics/SVG/1.1/DTD/svg11.dtd">
<svg version="1.1" id="Layer_1" xmlns="http://www.w3.org/2000/svg" xmlns:xlink="http://www.w3.org/1999/xlink" x="0px" y="0px"
	 width="1600px" height="215px" viewBox="0 0 1600 215" enable-background="new 0 0 1600 215" xml:space="preserve">
<path fill="#FFFFFF" d="M479,114.908V34h-10v62.511l-7.475-6.24l-9.454-3.423l-10.141-0.114l-9.667,3.224l-8.12,6.198l-5.68,8.501
	l-2.61,9.897l0.739,10.204l4.013,9.417l6.851,7.599l8.943,4.966l10.079,1.795l10.108-1.578l9.051-4.771l7.01-7.455l4.212-9.325
	l1.584-10.188L479,114.908z M467.375,127.215l-4.297,6.166l-6.062,4.435l-7.176,2.227l-7.514-0.222l-7.028-2.651l-5.794-4.793
	l-3.919-6.405l-1.623-7.336l0.84-7.469l3.222-6.788L433.281,99l6.708-3.377l7.451-1.01l7.365,1.457l6.501,3.765l4.92,5.687
	l2.816,6.964l0.394,7.502L467.375,127.215z"/>
<path fill="#FFFFFF" d="M547.799,105.84l-5.501-8.627l-8.011-6.37l-9.639-3.424l-10.233-0.115l-9.713,3.226l-8.142,6.197
	l-5.691,8.502l-2.617,9.896l0.738,10.206l4.01,9.415l6.852,7.6l8.941,4.964l10.079,1.796l10.108-1.578l8.985-4.771l4.037-4.364V149
	h7v-32.418l-0.063-0.145L547.799,105.84z M539.766,127.787l-4.297,6.165l-6.062,4.433l-7.176,2.229l-7.514-0.222l-7.028-2.651
	l-5.793-4.793l-3.92-6.405l-1.623-7.337l0.84-7.469l3.223-6.787l5.256-5.377l6.708-3.377l7.451-1.011l7.365,1.457l6.502,3.765
	l4.919,5.687l2.816,6.964l0.394,7.503L539.766,127.787z"/>
<polygon fill="#FFFFFF" points="639,114.766 639,149 632,149 632,120.022 631.094,112.342 628.171,105.378 623.2,99.692 
	616.672,95.927 609.293,94.471 601.835,95.48 595.125,98.859 589.867,104.235 586.643,111.023 585.871,117.879 585.867,118.49 
	586,118.8 586,149 577,149 577,116.782 577.483,114.452 580.1,104.515 585.899,96.013 594.097,89.814 603.836,86.591 
	614.083,86.705 623.729,90.128 631.744,96.499 637.247,105.126 639.168,114.264 "/>
<polygon fill="#FFFFFF" points="587.871,118.879 587.871,119.8 587.802,119.49 "/>
<rect x="649" y="104" fill="#FFFFFF" width="8" height="45"/>
<path fill="#FFFFFF" d="M726.542,121l0.618-6.271l-2.406-9.774l-5.503-8.545l-8.01-6.326l-9.639-3.4l-10.234-0.104l-9.713,3.229
	l-8.142,6.2l-5.69,8.505l-2.617,9.897l0.736,10.205l4.011,9.415l6.851,7.6l8.941,4.965l10.08,1.795l10.108-1.578l9.051-4.771
	l7.009-7.657L725.24,127h-8.742l-4.074,6.037l-6.062,4.533l-7.177,2.278l-7.513-0.196l-7.028-2.64l-5.793-4.787l-3.92-6.746
	L674.017,121H726.542z M673.845,114l0.303-2.823l3.223-6.864l5.256-5.415l6.708-3.396l7.451-1.022l7.366,1.452l6.502,3.766
	l4.918,5.683l2.817,7.118l0.069,1.503H673.845z"/>
<rect x="735" y="37" fill="#FFFFFF" width="8" height="112"/>
<rect x="751" y="37" fill="#FFFFFF" width="9" height="112"/>
<path fill="#FFFFFF" d="M883.652,133.301l-6.062,4.428l-7.178,2.231l-7.514-0.229l-7.027-2.651l-5.789-4.791l-3.924-6.409
	l-1.624-7.338l0.847-7.468l3.222-6.782l5.252-5.382l6.713-3.369l7.446-1.018l7.365,1.456l6.502,3.771l4.925,6.117l0.279,1.133h9.125
	l-0.229-1.377l-5.502-8.848l-8.012-6.481l-9.638-3.476l-10.233-0.144l-9.714,3.208l-8.143,6.193l-5.69,8.501l-2.615,9.893
	l0.736,10.203l4.011,9.417l6.85,7.599l8.944,4.966l10.078,1.794l10.106-1.577l9.051-4.771l7.012-7.446l2.559-5.654h-9.119
	L883.652,133.301z"/>
<path fill="#FFFFFF" d="M963.453,105.128l-5.502-8.628l-8.01-6.37l-9.64-3.423l-10.232-0.113l-9.713,3.223l-8.144,6.199
	l-5.691,8.501l-2.617,9.896l0.738,10.204l4.011,9.416l6.852,7.601l8.941,4.965l10.079,1.795l10.108-1.579l9.049-4.771l7.012-7.456
	l4.212-9.325l0.953-10.186L963.453,105.128z M955.424,127.071l-4.3,6.165l-6.062,4.434l-7.181,2.23l-7.511-0.226l-7.027-2.65
	l-5.793-4.79l-3.92-6.407l-1.623-7.337l0.841-7.471l3.222-6.784l5.255-5.377l6.712-3.375l7.446-1.016l7.367,1.457l6.501,3.771
	l4.921,5.682l2.815,6.967l0.394,7.502L955.424,127.071z"/>
<path fill="#FFFFFF" d="M826.904,106.269l-5.503-8.627l-8.011-6.371l-9.639-3.423l-10.233-0.114l-9.714,3.224l-8.142,6.198
	l-5.691,8.501l-2.617,9.897l0.737,10.204l4.01,9.417l6.851,7.599l8.942,4.966l10.078,1.795l10.109-1.578l8.931-4.771L821,138.82V149
	h8v-31.989l0.193-0.795L826.904,106.269z M818.871,128.215l-4.298,6.166l-6.063,4.435l-7.175,2.227l-7.515-0.222l-7.028-2.651
	L781,133.376l-3.92-6.405l-1.622-7.336l0.839-7.469l3.223-6.788l5.256-5.378l6.707-3.377l7.452-1.01l7.363,1.457l6.504,3.765
	l4.918,5.687l2.818,6.964l0.394,7.502L818.871,128.215z"/>
<path fill="#FFFFFF" d="M1036.702,115h-53.309l0.405-3.771l3.224-6.861l5.25-5.419l6.713-3.391l7.446-1.027l7.37,1.453l6.497,3.769
	l4.926,6.045l0.736,2.203h8.947l-0.503-2.448l-5.502-8.812l-8.011-6.463l-9.64-3.47l-10.233-0.136l-9.713,3.21l-8.142,6.192
	l-5.691,8.501l-2.616,9.551l0.594,7.874h52.184l-1.262,4.779l-4.297,6.338l-6.063,4.519l-7.183,2.276l-7.507-0.205l-7.029-2.641
	l-5.793-4.342L987.176,131h-9.262l1.691,3.529l6.851,7.381l8.941,4.854l10.079,1.74l10.108-1.605l9.051-4.783l7.009-7.465
	l4.213-9.33l0.954-10.033L1036.702,115z"/>
<path fill="#FFFFFF" d="M1115.573,115h-53.31l0.406-3.479l3.223-6.712l5.252-5.35l6.712-3.353l7.446-1.009l7.37,1.461l6.497,3.773
	l4.925,5.755l0.737,1.913h8.947l-0.504-2.155l-5.502-8.665l-8.01-6.392l-9.639-3.433l-10.234-0.118l-9.712,3.22l-8.142,6.199
	l-5.691,8.502l-2.618,10.259l0.596,8.583h52.182l-1.261,4.07l-4.298,5.984l-6.062,4.344l-7.184,2.188l-7.508-0.252l-7.028-2.664
	l-5.794-4.642l-1.324-2.029h-9.261l1.69,3.821l6.851,7.524l8.942,4.928l10.078,1.776l10.107-1.585l9.053-4.777l7.01-7.458
	l4.209-9.325l0.957-10.325L1115.573,115z"/>
<path fill="#FFFFFF" d="M1186.12,122l0.617-6.451l-2.406-9.865l-5.501-8.586l-8.012-6.349l-9.639-3.413l-10.233-0.108l-9.712,3.225
	l-8.143,6.201l-5.691,8.503l-2.616,9.896l0.736,10.204l4.013,9.417l6.85,7.599l8.941,4.966l10.078,1.795l10.109-1.579l9.051-4.771
	l7.01-7.979l3.246-7.705h-8.743l-4.073,6.357l-6.063,4.693l-7.175,2.359l-7.514-0.157l-7.028-2.619l-5.793-4.776l-3.92-6.563
	l-0.915-4.295H1186.12z M1133.423,114l0.302-2.503l3.224-6.704l5.256-5.336l6.709-3.357l7.45-0.998l7.365,1.463l6.502,3.767
	l4.92,5.685l2.815,6.8l0.069,1.185H1133.423z"/>
<polygon fill="#FFFFFF" points="654.458,96.653 650.008,96.029 647.721,92.163 649.318,87.964 653.597,86.596 657.336,89.087 
	657.718,93.563 "/>
<polygon fill="#FFFFFF" points="564.81,148.504 560.359,147.882 558.073,144.016 559.67,139.816 563.949,138.446 567.688,140.939 
	568.07,145.416 "/>
<polygon fill="#FFFFFF" points="1045.688,149.306 1041.239,148.683 1038.953,144.816 1040.549,140.616 1044.829,139.248 
	1048.567,141.74 1048.949,146.216 "/>
</svg>
