<?xml version="1.0" encoding="utf-8"?>
<!-- Generator: Adobe Illustrator 15.1.0, SVG Export Plug-In . SVG Version: 6.00 Build 0)  -->
<!DOCTYPE svg PUBLIC "-//W3C//DTD SVG 1.1//EN" "http://www.w3.org/Graphics/SVG/1.1/DTD/svg11.dtd">
<svg version="1.1" id="Layer_1" xmlns="http://www.w3.org/2000/svg" xmlns:xlink="http://www.w3.org/1999/xlink" x="0px" y="0px"
	 width="120px" height="120px" viewBox="0 0 120 120" enable-background="new 0 0 120 120" xml:space="preserve">
<g>
	<path fill="#FFFFFF" d="M76.29,5.384l4.441,1.578l-2.628,7.403l-1.502-0.533l2.096-5.902l-1.48-0.526l-2.096,5.902l-1.46-0.519
		L76.29,5.384z M76.695,8.875l1.48,0.525l-0.519,1.46l-1.48-0.525L76.695,8.875z"/>
	<path fill="#FFFFFF" d="M83.009,7.377l4.199,2.067l-0.693,1.41l-2.81-1.383l-0.708,1.439l4.238,2.087l-0.685,1.39L82.313,12.3
		l-0.694,1.41l4.239,2.086l-0.689,1.4l-5.629-2.771L83.009,7.377z M85.134,10.174l1.381,0.68l-0.709,1.439l-1.38-0.68L85.134,10.174
		z M85.122,13.683l1.429,0.704l-0.693,1.41l-1.43-0.704L85.122,13.683z"/>
	<path fill="#FFFFFF" d="M90.904,11.925l1.229,0.978l-4.876,6.131l-1.229-0.978L90.904,11.925z M92.134,12.902l2.459,1.956
		l-4.876,6.131l-2.459-1.956l0.957-1.204l1.247,0.992l2.94-3.697l-1.246-0.992L92.134,12.902z"/>
	<path fill="#FFFFFF" d="M95.824,15.838l1.229,0.978l-3.912,4.919l1.247,0.991l3.912-4.919l1.212,0.964l-4.89,6.149l-3.688-2.934
		L95.824,15.838z"/>
	<path fill="#FFFFFF" d="M102.269,20.814l2.637,3.88l-1.3,0.883l-0.871-1.282l-5.216,3.544l-0.871-1.282l5.217-3.544l-0.896-1.318
		L102.269,20.814z"/>
	<path fill="#FFFFFF" d="M107.508,28.894l0.833,1.306l-1.334,0.851l0.856,1.343l-1.324,0.845l0.845,1.325l1.324-0.845l0.845,1.325
		l1.334-0.851l0.827,1.297l-6.624,4.224l-0.827-1.297l3.966-2.528l-0.845-1.325l-1.307,0.833l-0.845-1.325l1.307-0.833l-0.856-1.343
		l-3.966,2.528l-0.833-1.306L107.508,28.894z"/>
	<path fill="#FFFFFF" d="M113.18,38.75l1.108,4.582l-1.527,0.369l-0.738-3.054l-1.56,0.377l0.37,1.527l-1.527,0.369l-0.369-1.527
		l-1.538,0.372l0.738,3.054l-1.506,0.364l-1.107-4.582L113.18,38.75z"/>
	<path fill="#FFFFFF" d="M98.081,102.178l-3.491,3.166l-5.277-5.819l1.181-1.07l4.207,4.64l1.163-1.055l-4.206-4.641l1.147-1.04
		L98.081,102.178z M94.815,100.883l-1.164,1.056l-1.04-1.148l1.164-1.055L94.815,100.883z"/>
	<path fill="#FFFFFF" d="M91.929,106.868l-4.141,2.182l-0.732-1.39l2.771-1.46l-0.748-1.419l-4.18,2.203l-0.722-1.371l4.179-2.202
		l-0.732-1.391l-4.18,2.203l-0.728-1.38l5.551-2.926L91.929,106.868z M85.586,104.871l-1.409,0.742l-0.733-1.39l1.409-0.743
		L85.586,104.871z M88.417,106.943l-1.361,0.717l-0.748-1.419l1.361-0.717L88.417,106.943z"/>
	<path fill="#FFFFFF" d="M83.584,111.304l-2.78,1.465l-3.652-6.931l2.779-1.465l0.718,1.361l-1.409,0.742l2.203,4.18l1.409-0.743
		L83.584,111.304z M84.974,110.57l-1.39,0.733l-3.653-6.931l1.391-0.732L84.974,110.57z"/>
	<path fill="#FFFFFF" d="M77.658,114.242l-1.549,0.265l-1.059-6.194l-1.57,0.269l1.06,6.194l-1.527,0.261l-1.324-7.743l4.646-0.794
		L77.658,114.242z"/>
	<path fill="#FFFFFF" d="M71.36,115.295l-4.636,0.724l-0.242-1.553l1.53-0.238l-0.973-6.231l1.531-0.239l0.973,6.231l1.574-0.246
		L71.36,115.295z"/>
	<path fill="#FFFFFF" d="M60.012,117.267l-1.525-0.271l0.277-1.558l-1.568-0.279l0.275-1.547l-1.547-0.275l-0.275,1.547
		l-1.547-0.275l-0.277,1.558l-1.515-0.27l1.376-7.734l1.515,0.27l-0.824,4.63l1.547,0.275l0.271-1.525l1.547,0.275l-0.271,1.525
		l1.568,0.279l0.824-4.63l1.525,0.271L60.012,117.267z"/>
	<path fill="#FFFFFF" d="M50.752,115.617l-4.641-0.826l0.275-1.547l3.094,0.551l0.281-1.579l-1.547-0.275l0.275-1.547l1.547,0.275
		l0.277-1.558l-3.094-0.551l0.271-1.525l4.641,0.826L50.752,115.617z"/>
	<path fill="#FFFFFF" d="M5.081,76.385l-1.152-4.571l7.618-1.919l0.389,1.544L5.863,72.97l0.384,1.523l6.073-1.531l0.379,1.503
		L5.081,76.385z M7.76,74.111l-0.384-1.523l1.502-0.379l0.384,1.524L7.76,74.111z"/>
	<path fill="#FFFFFF" d="M3.868,69.168L3.531,64.5l1.567-0.113l0.226,3.123l1.6-0.115l-0.34-4.713l1.545-0.111l0.34,4.713
		l1.567-0.113l-0.34-4.713l1.556-0.111l0.452,6.257L3.868,69.168z M5.208,65.921l-0.111-1.534l1.6-0.115l0.111,1.534L5.208,65.921z
		 M8.243,64.159L8.128,62.57l1.567-0.113l0.115,1.59L8.243,64.159z"/>
	<path fill="#FFFFFF" d="M3.156,59.758l-0.227-3.134l7.814-0.564l0.226,3.134l-1.535,0.111L9.32,57.716l-4.712,0.34l0.115,1.589
		L3.156,59.758z M3.269,61.325l-0.113-1.567l7.813-0.564l0.113,1.567L3.269,61.325z"/>
	<path fill="#FFFFFF" d="M3.104,53.08l0.401-1.519l6.076,1.606l0.407-1.54l-6.076-1.606l0.396-1.498l7.595,2.008l-1.205,4.557
		L3.104,53.08z"/>
	<path fill="#FFFFFF" d="M4.69,46.995l1.199-4.536l1.519,0.401l-0.396,1.498l6.097,1.612l-0.396,1.498l-6.097-1.612l-0.407,1.541
		L4.69,46.995z"/>
	<path fill="#FFFFFF" d="M7.694,35.928l0.862-1.288l1.314,0.88l0.886-1.324l1.306,0.874l0.874-1.305l-1.306-0.875l0.874-1.305
		l-1.314-0.88l0.855-1.278l6.528,4.37l-0.856,1.278l-3.908-2.616l-0.874,1.306l1.288,0.862l-0.874,1.306l-1.288-0.862l-0.886,1.324
		l3.908,2.616l-0.862,1.288L7.694,35.928z"/>
	<path fill="#FFFFFF" d="M12.93,28.107l2.622-3.917l1.306,0.874l-1.748,2.611l1.333,0.892l0.874-1.306l1.306,0.874l-0.874,1.306
		l1.314,0.88l1.748-2.611l1.288,0.862l-2.622,3.917L12.93,28.107z"/>
</g>
</svg>
