<?xml version="1.0" encoding="utf-8"?>
<!-- Generator: Adobe Illustrator 15.1.0, SVG Export Plug-In . SVG Version: 6.00 Build 0)  -->
<!DOCTYPE svg PUBLIC "-//W3C//DTD SVG 1.1//EN" "http://www.w3.org/Graphics/SVG/1.1/DTD/svg11.dtd">
<svg version="1.1" id="Layer_1" xmlns="http://www.w3.org/2000/svg" xmlns:xlink="http://www.w3.org/1999/xlink" x="0px" y="0px"
	 width="120px" height="120px" viewBox="0 0 120 120" enable-background="new 0 0 120 120" xml:space="preserve">
<path fill="#FFFFFF" d="M115.021,36.203l-10.556-16.55L89.1,7.433L70.61,0.868L50.981,0.649L32.349,6.83L16.731,18.722L5.815,35.03
	l-5.02,18.983l1.414,19.574l7.693,18.062l13.142,14.577l17.151,9.523l19.334,3.442l19.389-3.024l17.359-9.151l13.448-14.304
	l8.077-17.887l1.83-19.541L115.021,36.203z M109.255,82.903L99.007,97.601l-14.456,10.575l-17.119,5.317l-17.908-0.537
	l-16.758-6.324L18.957,95.211L9.607,79.933L5.738,62.441l2.006-17.811l7.683-16.177l12.527-12.823l16.002-8.045l17.755-2.422
	l17.568,3.474l15.498,8.988l11.737,13.546l6.708,16.616l0.942,17.886L109.255,82.903z"/>
<polygon fill="#FFFFFF" points="31,43.568 31,31.512 40.283,18.086 54.927,12.88 71.564,15.62 79.145,21.922 87,34.8 87,47.952 
	75.135,57.815 63.173,64.117 62.946,75.352 65.436,87.407 67.913,92.613 54.219,93.436 52.853,82.201 52.58,68.775 53.951,55.35 
	66.572,50.144 77,42.198 77,31.512 68.215,24.936 56.015,24.388 44.023,27.128 39.945,38.362 39.994,47.678 "/>
<polygon fill="#FFFFFF" points="55.478,105.691 56.887,99.356 63.274,97.861 69.312,99.119 70.658,103.392 67.324,109 59.299,109 
	"/>
</svg>
