<?xml version="1.0" encoding="utf-8"?>
<!-- Generator: Adobe Illustrator 15.1.0, SVG Export Plug-In . SVG Version: 6.00 Build 0)  -->
<!DOCTYPE svg PUBLIC "-//W3C//DTD SVG 1.1//EN" "http://www.w3.org/Graphics/SVG/1.1/DTD/svg11.dtd">
<svg version="1.1" id="Layer_1" xmlns="http://www.w3.org/2000/svg" xmlns:xlink="http://www.w3.org/1999/xlink" x="0px" y="0px"
	 width="120px" height="120px" viewBox="0 0 120 120" enable-background="new 0 0 120 120" xml:space="preserve">
<g>
	<path fill="#FFFFFF" d="M76.906,5.578l1.455,0.517L77.833,7.58l1.496,0.531l-0.523,1.475l1.476,0.524l0.523-1.476l1.476,0.524
		l0.527-1.486l1.445,0.513l-2.62,7.377l-1.444-0.513l1.567-4.416l-1.475-0.524l-0.518,1.455l-1.475-0.524l0.517-1.455L77.31,9.056
		l-1.568,4.416l-1.455-0.517L76.906,5.578z"/>
	<path fill="#FFFFFF" d="M87.463,9.117l1.271,0.914l-3.657,5.084l1.289,0.927l3.657-5.084l1.253,0.901l-4.571,6.355l-3.813-2.743
		L87.463,9.117z"/>
	<path fill="#FFFFFF" d="M92.702,13.079l3.676,2.923l-0.975,1.226l-2.434-1.936l-0.981,1.234l2.434,1.936l-2.916,3.668l-3.677-2.924
		l0.975-1.226l2.468,1.963l0.981-1.234l-2.468-1.963L92.702,13.079z"/>
	<path fill="#FFFFFF" d="M97.573,16.954l1.226,0.975l-4.873,6.127l-1.225-0.975L97.573,16.954z"/>
	<path fill="#FFFFFF" d="M101.271,19.417l2.986,3.598l-1.205,1l-1.986-2.393l-3.631,3.014l1.986,2.393l-1.188,0.986l-2.986-3.597
		L101.271,19.417z"/>
	<path fill="#FFFFFF" d="M107.13,27.667l2.526,3.96l-1.357,0.865l-1.672-2.622l-1.302,0.831l1.672,2.622l-1.319,0.842l-1.673-2.622
		l-1.338,0.854l1.672,2.622l-1.265,0.807l-2.526-3.96l2.604-1.661l0.854,1.338l1.32-0.842l-0.854-1.338L107.13,27.667z
		 M104.824,32.827l0.854,1.338l-1.339,0.854l-0.854-1.338L104.824,32.827z M106.997,33.323l0.843,1.32l-1.32,0.842l-0.842-1.32
		L106.997,33.323z M107.469,31.191l0.83,1.302l-1.302,0.83l-0.83-1.302L107.469,31.191z"/>
	<path fill="#FFFFFF" d="M113.655,38.805l1.104,4.565l-7.609,1.84l-0.373-1.543l6.066-1.467l-0.368-1.522l-6.066,1.468l-0.363-1.501
		L113.655,38.805z M110.964,41.044l0.368,1.522l-1.5,0.363l-0.368-1.521L110.964,41.044z"/>
	<path fill="#FFFFFF" d="M115.129,44.898l0.368,1.522l-6.087,1.472l0.373,1.543l6.087-1.472l0.363,1.5l-7.609,1.84l-1.104-4.565
		L115.129,44.898z"/>
	<path fill="#FFFFFF" d="M117.085,51.672l0.332,3.092l-1.578,0.169l-0.165-1.535l-4.659,0.5l0.164,1.535l-1.524,0.164l-0.331-3.092
		L117.085,51.672z M115.839,54.933l0.164,1.535l-4.659,0.5l-0.165-1.535L115.839,54.933z"/>
	<path fill="#FFFFFF" d="M117.387,59.119l-0.146,1.559l-7.795-0.731l0.146-1.559L117.387,59.119z"/>
	<path fill="#FFFFFF" d="M116.947,63.806l-0.292,3.118l-7.772-0.729l0.292-3.118l1.526,0.144l-0.148,1.58l4.688,0.439l0.148-1.58
		L116.947,63.806z M117.093,62.247l-0.146,1.559l-7.772-0.729l0.146-1.559L117.093,62.247z"/>
	<path fill="#FFFFFF" d="M98.243,103.117l-1.291,0.847l-0.865-1.317l-1.327,0.87l-0.858-1.309l-1.31,0.858l0.859,1.31l-1.31,0.858
		l0.865,1.318l-1.282,0.841l-4.294-6.545l1.281-0.841l2.571,3.918l1.309-0.859l-0.847-1.29l1.309-0.859l0.848,1.291l1.327-0.871
		l-2.571-3.918l1.291-0.847L98.243,103.117z"/>
	<path fill="#FFFFFF" d="M89.721,108.197l-1.385,0.729l-2.92-5.54l-1.404,0.74l2.92,5.54l-1.366,0.72l-3.65-6.925l4.155-2.19
		L89.721,108.197z"/>
	<path fill="#FFFFFF" d="M83.931,111.419l-4.264,1.971l-0.656-1.422l2.822-1.304l-0.661-1.432l-2.823,1.305l-1.965-4.255l4.264-1.97
		l0.657,1.422l-2.862,1.322l0.661,1.431l2.862-1.322L83.931,111.419z"/>
	<path fill="#FFFFFF" d="M76.646,114.354l-1.547,0.241l-1.208-7.734l1.547-0.241L76.646,114.354z"/>
	<path fill="#FFFFFF" d="M73.552,114.836l-4.62,0.721l-0.241-1.547l3.073-0.479l-0.728-4.662l-3.072,0.479l-0.238-1.525l4.62-0.72
		L73.552,114.836z"/>
	<path fill="#FFFFFF" d="M58.448,113.461l-1.561-0.128l0.128-1.561l1.561,0.128L58.448,113.461z M62.871,116.987l-4.682-0.384
		L58.321,115l3.1,0.254l0.126-1.539l-3.099-0.254l0.128-1.561l3.099,0.255l0.13-1.583l-3.099-0.254l0.123-1.495l4.681,0.384
		l-0.253,3.078l-1.582-0.13l-0.128,1.56l1.582,0.13L62.871,116.987z M59.86,115.126L58.321,115l0.126-1.539l1.539,0.126
		L59.86,115.126z M60.158,112.03l-1.582-0.13l0.13-1.582l1.582,0.13L60.158,112.03z"/>
	<path fill="#FFFFFF" d="M51.473,115.427l-4.624-0.823l1.372-7.707l1.563,0.278l-1.094,6.145l1.542,0.274l1.094-6.145l1.52,0.271
		L51.473,115.427z M50.503,112.063l-1.542-0.274l0.271-1.52l1.542,0.274L50.503,112.063z"/>
	<path fill="#FFFFFF" d="M43.949,114.459l-1.45-0.591l2.363-5.8l-1.47-0.6l-2.363,5.8l-1.43-0.582l2.954-7.25l4.35,1.772
		L43.949,114.459z"/>
	<path fill="#FFFFFF" d="M35.671,108.617l-1.35-0.75l2.275-4.097l1.35,0.75L35.671,108.617z M37.619,111.515l-2.719-1.51
		l0.771-1.388l1.35,0.749l2.275-4.097l-1.35-0.749l0.744-1.341l2.719,1.51L37.619,111.515z"/>
	<path fill="#FFFFFF" d="M32.153,108.479l-1.369-0.761l3.8-6.844l1.369,0.76L32.153,108.479z"/>
	<path fill="#FFFFFF" d="M27.272,105.923l-2.514-1.868l4.656-6.267l2.514,1.868l-0.915,1.23l-1.274-0.947l-2.808,3.779l1.274,0.947
		L27.272,105.923z M28.528,106.856l-1.256-0.934l4.656-6.267l1.256,0.934L28.528,106.856z"/>
	<path fill="#FFFFFF" d="M5.364,75.606l-0.175-1.534l1.566-0.179l-0.18-1.577l1.556-0.178l-0.178-1.556l-1.556,0.178l-0.177-1.556
		l-1.566,0.179L4.48,67.86l7.778-0.887l0.174,1.522l-4.656,0.531l0.177,1.556l1.534-0.175l0.177,1.556l-1.534,0.175l0.18,1.577
		l4.656-0.531l0.175,1.534L5.364,75.606z"/>
	<path fill="#FFFFFF" d="M4.472,66.033l-0.113-1.562l6.247-0.451l-0.114-1.583l-6.247,0.45l-0.111-1.54l7.808-0.563l0.338,4.685
		L4.472,66.033z"/>
	<path fill="#FFFFFF" d="M3.685,59.124l0.167-4.694l1.565,0.056l-0.111,3.107l1.576,0.057l0.111-3.108l4.683,0.167l-0.168,4.694
		l-1.564-0.056l0.112-3.151L8.481,56.14l-0.113,3.151L3.685,59.124z"/>
	<path fill="#FFFFFF" d="M4.358,51.628l0.4-1.514l7.569,2l-0.4,1.514L4.358,51.628z"/>
	<path fill="#FFFFFF" d="M5.157,48.605l1.194-4.52l1.514,0.4l-0.794,3.006l4.562,1.206l0.795-3.006l1.493,0.395l-1.195,4.52
		L5.157,48.605z"/>
	<path fill="#FFFFFF" d="M7.666,37.655l2.454-4.005l1.372,0.84l-1.624,2.652l1.316,0.807l1.625-2.652l1.335,0.818l-1.625,2.652
		l1.354,0.829l1.624-2.652l1.28,0.784l-2.454,4.005L11.69,40.12l0.829-1.354l-1.335-0.818l-0.829,1.354L7.666,37.655z
		 M10.686,35.807l0.806-1.317l1.317,0.807l-0.807,1.316L10.686,35.807z M12.809,35.296l0.818-1.335l1.335,0.818l-0.818,1.335
		L12.809,35.296z M13.314,37.468l0.829-1.354l1.354,0.829l-0.829,1.354L13.314,37.468z"/>
	<path fill="#FFFFFF" d="M13.735,28.254l2.613-3.903l6.505,4.355l-0.883,1.319l-5.187-3.472l-0.871,1.301l5.187,3.472l-0.859,1.283
		L13.735,28.254z M17.205,28.72l0.871-1.301l1.283,0.859l-0.871,1.301L17.205,28.72z"/>
	<path fill="#FFFFFF" d="M17.92,21.536l1.183-1.026l4.103,4.731l1.199-1.04l-4.103-4.731l1.167-1.011l5.129,5.914l-3.549,3.078
		L17.92,21.536z"/>
	<path fill="#FFFFFF" d="M23.091,17.327l2.474-1.884l0.962,1.263l-1.229,0.936l2.839,3.729l1.229-0.936l0.929,1.22l-2.474,1.884
		L23.091,17.327z M26.527,16.706l1.228-0.935l2.839,3.729l-1.228,0.935L26.527,16.706z"/>
	<path fill="#FFFFFF" d="M28.063,13.541l1.246-0.949l4.742,6.229l-1.246,0.949L28.063,13.541z"/>
	<path fill="#FFFFFF" d="M31.262,10.633l1.401-0.699l3.483,6.987l-1.401,0.698L31.262,10.633z M32.663,9.935l2.803-1.397
		l3.483,6.986l-2.802,1.397l-0.684-1.372l1.421-0.708l-2.101-4.213l-1.421,0.708L32.663,9.935z"/>
</g>
</svg>
