<?xml version="1.0" encoding="utf-8"?>
<!-- Generator: Adobe Illustrator 15.1.0, SVG Export Plug-In . SVG Version: 6.00 Build 0)  -->
<!DOCTYPE svg PUBLIC "-//W3C//DTD SVG 1.1//EN" "http://www.w3.org/Graphics/SVG/1.1/DTD/svg11.dtd">
<svg version="1.1" id="Layer_1" xmlns="http://www.w3.org/2000/svg" xmlns:xlink="http://www.w3.org/1999/xlink" x="0px" y="0px"
	 width="120px" height="120px" viewBox="0 0 120 120" enable-background="new 0 0 120 120" xml:space="preserve">
<g>
	<path fill="#FFFFFF" d="M114.384,36.478L103.952,20.12L88.764,8.042L70.49,1.553L51.088,1.336L32.672,7.445L17.236,19.199
		L6.446,35.318L1.485,54.081l1.398,19.348l7.604,17.852l12.989,14.408l16.953,9.413l19.109,3.402l19.164-2.991l17.158-9.044
		l13.291-14.138l7.984-17.679l1.809-19.315L114.384,36.478z M108.686,82.636L98.557,97.163L84.27,107.616l-16.921,5.254
		l-17.701-0.531l-16.563-6.25l-13.65-11.288L10.195,79.7L6.37,62.411l1.983-17.603l7.594-15.99l12.382-12.674l15.816-7.952
		l17.55-2.394l17.363,3.434l15.318,8.883l11.603,13.389l6.63,16.423l0.931,17.679L108.686,82.636z"/>
	<polygon fill="none" stroke="#FFFFFF" stroke-width="1.0629" stroke-miterlimit="10" points="104.865,80.809 95.53,94.195 
		82.362,103.829 66.769,108.672 50.456,108.183 35.192,102.423 22.612,92.02 14.097,78.104 10.573,62.17 12.4,45.947 19.397,31.211 
		30.809,19.531 45.385,12.203 61.558,9.998 77.562,13.163 91.676,21.348 102.369,33.688 108.479,48.822 109.337,65.115 	"/>
	<polygon fill="none" stroke="#FFFFFF" stroke-width="1.0343" stroke-miterlimit="10" points="100.132,78.546 91.78,90.522 
		79.999,99.14 66.051,103.473 51.456,103.033 37.802,97.882 26.548,88.575 18.931,76.124 15.777,61.872 17.412,47.358 
		23.672,34.176 33.88,23.727 46.92,17.171 61.388,15.198 75.704,18.028 88.334,25.352 97.9,36.391 103.364,49.93 104.133,64.506 	
		"/>
	<polygon fill="none" stroke="#FFFFFF" stroke-width="0.9898" stroke-miterlimit="10" points="95.506,76.335 88.116,86.931 
		77.693,94.559 65.35,98.393 52.435,98.004 40.352,93.444 30.393,85.21 23.653,74.192 20.862,61.579 22.31,48.737 27.849,37.072 
		36.881,27.825 48.421,22.024 61.222,20.277 73.892,22.783 85.067,29.264 93.531,39.032 98.368,51.013 99.047,63.909 	"/>
	<polygon fill="none" stroke="#FFFFFF" stroke-width="0.9568" stroke-miterlimit="10" points="91.057,74.206 84.592,83.475 
		75.472,90.146 64.674,93.502 53.376,93.161 42.806,89.175 34.095,81.97 28.197,72.334 25.757,61.298 27.023,50.063 31.868,39.859 
		39.771,31.771 49.865,26.696 61.065,25.168 72.146,27.36 81.924,33.028 89.326,41.574 93.559,52.055 94.153,63.336 	"/>
	<polygon fill="none" stroke="#FFFFFF" stroke-width="0.9187" stroke-miterlimit="10" points="86.628,72.089 81.083,80.04 
		73.263,85.761 64.001,88.638 54.312,88.347 45.247,84.927 37.776,78.747 32.719,70.481 30.625,61.021 31.711,51.384 35.867,42.632 
		42.644,35.695 51.302,31.343 60.906,30.033 70.41,31.911 78.795,36.774 85.144,44.103 88.773,53.091 89.284,62.768 	"/>
</g>
<g>
	<polygon fill="#FFFFFF" points="31.06,87.11 31.984,91.734 37.821,94.508 40.591,92.794 40.037,87.759 35.402,84.703 	"/>
	
		<line fill="none" stroke="#FFFFFF" stroke-width="1.0833" stroke-miterlimit="10" x1="39.801" y1="92.793" x2="57.684" y2="65.658"/>
</g>
<g>
	<polygon fill="#FFFFFF" points="14.011,61.075 12.162,65.416 15.414,70.997 18.668,71.148 21.054,66.682 18.952,61.542 	"/>
	<polyline fill="none" stroke="#FFFFFF" stroke-width="1.0833" stroke-miterlimit="10" points="18.017,70.701 48.097,58.402 
		45.077,67.828 37.933,70.751 33.951,69.6 33.004,70.863 	"/>
</g>
<g>
	<polygon fill="#FFFFFF" points="60.832,109.134 64.322,112.27 70.566,110.956 71.717,107.912 68.274,104.225 62.808,104.587 	"/>
	<polyline fill="none" stroke="#FFFFFF" stroke-width="1.0772" stroke-miterlimit="10" points="71.099,108.388 68.941,75.904 
		75.894,67.07 93.767,91.963 	"/>
</g>
<g>
	<polygon fill="#FFFFFF" points="85.82,98.372 90.447,99.143 95.007,94.68 94.345,91.494 89.46,90.233 85.043,93.475 	"/>
	<path fill="none" stroke="#FFFFFF" stroke-width="1.0772" stroke-miterlimit="10" d="M78.199,64.994"/>
	<path fill="none" stroke="#FFFFFF" stroke-width="1.0772" stroke-miterlimit="10" d="M96.384,90.153"/>
</g>
<g>
	<polygon fill="#FFFFFF" points="105.104,67.8 108.333,64.36 107.201,57.998 104.196,56.739 100.42,60.114 100.624,65.661 	"/>
	
		<line fill="none" stroke="#FFFFFF" stroke-width="1.0833" stroke-miterlimit="10" x1="104.654" y1="57.382" x2="72.18" y2="58.582"/>
</g>
<g>
	<polygon fill="#FFFFFF" points="87.06,22.374 85.264,18.014 79.005,16.414 76.613,18.627 78.124,23.461 83.26,25.569 	"/>
	<polyline fill="none" stroke="#FFFFFF" stroke-width="1.0833" stroke-miterlimit="10" points="77.39,18.476 65.051,48.542 
		60.452,39.774 63.382,32.634 66.995,30.604 66.758,29.043 	"/>
</g>
<g>
	<polygon fill="#FFFFFF" points="28.248,20.687 23.611,21.549 20.758,27.348 22.435,30.14 27.477,29.655 30.595,25.063 	"/>
	<line fill="none" stroke="#FFFFFF" stroke-width="1.0833" stroke-miterlimit="10" x1="22.446" y1="29.351" x2="49.335" y2="47.6"/>
</g>
</svg>
