<?xml version="1.0" encoding="utf-8"?>
<!-- Generator: Adobe Illustrator 15.1.0, SVG Export Plug-In . SVG Version: 6.00 Build 0)  -->
<!DOCTYPE svg PUBLIC "-//W3C//DTD SVG 1.1//EN" "http://www.w3.org/Graphics/SVG/1.1/DTD/svg11.dtd">
<svg version="1.1" id="Layer_1" xmlns="http://www.w3.org/2000/svg" xmlns:xlink="http://www.w3.org/1999/xlink" x="0px" y="0px"
	 width="120px" height="120px" viewBox="0 0 120 120" enable-background="new 0 0 120 120" xml:space="preserve">
<g>
	<path fill="#FFFFFF" d="M76.504,4.674l1.5,0.533l-2.663,7.5l-1.5-0.533L76.504,4.674z"/>
	<path fill="#FFFFFF" d="M79.52,5.745l2.979,1.058l-0.54,1.521l-1.479-0.525l-1.594,4.489l1.479,0.525l-0.521,1.469l-2.979-1.058
		L79.52,5.745z M81.959,8.323l1.479,0.525l-1.594,4.489l-1.479-0.525L81.959,8.323z"/>
	<path fill="#FFFFFF" d="M86.957,8.218l3.967,2.658l-0.887,1.322l-2.645-1.772l-0.904,1.35l1.322,0.886l-0.886,1.322l-1.322-0.886
		l-0.892,1.331l2.645,1.772l-0.874,1.304l-3.967-2.658L86.957,8.218z"/>
	<path fill="#FFFFFF" d="M92.509,12.258l3.737,2.972l-4.953,6.229l-1.264-1.004l3.949-4.966l-1.246-0.991l-3.948,4.966l-1.229-0.977
		L92.509,12.258z M91.749,15.735l1.246,0.991l-0.978,1.229l-1.245-0.991L91.749,15.735z"/>
	<path fill="#FFFFFF" d="M97.507,16.231l3.737,2.972l-0.991,1.246l-2.474-1.968l-0.998,1.254l2.475,1.968l-2.965,3.729l-3.737-2.972
		l0.99-1.246l2.509,1.995l0.997-1.254l-2.509-1.995L97.507,16.231z"/>
	<path fill="#FFFFFF" d="M105.465,24.359l2.567,4.026l-1.379,0.879l-1.699-2.665l-1.324,0.844l1.7,2.666l-1.342,0.855l-1.7-2.665
		l-1.36,0.868l1.7,2.665l-1.286,0.82l-2.567-4.026l2.646-1.688l0.867,1.361l1.342-0.856l-0.867-1.36L105.465,24.359z M103.12,29.604
		l0.868,1.36l-1.36,0.868l-0.868-1.36L103.12,29.604z M105.33,30.109l0.855,1.342l-1.342,0.856l-0.855-1.342L105.33,30.109z
		 M105.81,27.941l0.844,1.323l-1.323,0.844l-0.844-1.324L105.81,27.941z"/>
	<path fill="#FFFFFF" d="M112.369,34.569l1.752,4.441l-1.48,0.584l-1.168-2.961l-1.511,0.596l0.584,1.48l-1.481,0.584l-0.584-1.48
		l-1.49,0.588l1.168,2.961l-1.46,0.576l-1.752-4.442L112.369,34.569z"/>
	<path fill="#FFFFFF" d="M114.58,41.402l1.122,4.641l-1.547,0.374l-0.743-3.072l-1.558,0.376l0.742,3.073l-4.63,1.119l-1.122-4.641
		l1.547-0.374l0.753,3.116l1.559-0.377l-0.754-3.115L114.58,41.402z"/>
	<path fill="#FFFFFF" d="M116.076,47.591l1.122,4.641l-1.547,0.374l-0.743-3.073l-1.558,0.377l0.742,3.072l-4.63,1.12l-1.122-4.641
		l1.547-0.374l0.753,3.115l1.559-0.376l-0.754-3.116L116.076,47.591z"/>
	<path fill="#FFFFFF" d="M117.979,55.706l-0.447,4.753l-7.923-0.745l0.151-1.607l6.316,0.594l0.149-1.584l-6.316-0.594l0.146-1.563
		L117.979,55.706z M114.651,56.969l-0.148,1.584l-1.563-0.147l0.148-1.584L114.651,56.969z"/>
	<path fill="#FFFFFF" d="M117.361,62.042l-0.146,1.563l-3.191-0.299l-0.15,1.606l3.191,0.299l-0.148,1.585l-4.766-0.447l0.149-1.584
		l-3.137-0.294l0.15-1.607l3.137,0.295l0.146-1.563L117.361,62.042z"/>
	<path fill="#FFFFFF" d="M116.886,68.649l-0.639,4.731l-1.577-0.213l0.423-3.133l-1.588-0.215l-0.423,3.133l-4.722-0.637l0.64-4.732
		l1.577,0.213l-0.429,3.177l1.588,0.215l0.429-3.177L116.886,68.649z"/>
	<path fill="#FFFFFF" d="M103.36,97.328l-1.09,1.16l-5.798-5.452l1.09-1.159L103.36,97.328z"/>
	<path fill="#FFFFFF" d="M101.152,99.676l-2.165,2.304l-1.176-1.105l1.075-1.144l-3.471-3.263l-1.075,1.143l-1.136-1.067
		l2.165-2.303L101.152,99.676z M97.812,100.874l-1.075,1.144l-3.471-3.264l1.075-1.144L97.812,100.874z"/>
	<path fill="#FFFFFF" d="M95.729,105.494l-4.082,2.478l-0.826-1.36l2.722-1.652l-0.843-1.389l-1.361,0.826l-0.825-1.361l1.36-0.825
		l-0.832-1.37l-2.721,1.651l-0.814-1.342l4.081-2.478L95.729,105.494z"/>
	<path fill="#FFFFFF" d="M89.876,108.813l-4.224,2.227l-3.711-7.04l1.428-0.752l2.958,5.612l1.408-0.742l-2.958-5.612l1.388-0.732
		L89.876,108.813z M86.998,106.719l-1.408,0.742l-0.731-1.389l1.408-0.742L86.998,106.719z"/>
	<path fill="#FFFFFF" d="M84.085,111.982l-4.298,2.08l-0.693-1.433l2.845-1.377l-0.698-1.442l-2.845,1.377l-2.076-4.288l4.298-2.08
		l0.693,1.433l-2.885,1.396l0.698,1.442l2.886-1.396L84.085,111.982z"/>
	<path fill="#FFFFFF" d="M65.192,113.71l-1.572,0.245l-0.245-1.572l1.572-0.245L65.192,113.71z M70.404,116.141l-4.718,0.736
		l-0.252-1.616l3.123-0.487l-0.241-1.551l-3.124,0.487l-0.245-1.572l3.123-0.487l-0.248-1.595l-3.124,0.487l-0.234-1.507
		l4.718-0.736l0.483,3.102l-1.595,0.249l0.246,1.572l1.594-0.249L70.404,116.141z M66.542,111.889l-1.595,0.249l-0.249-1.595
		l1.595-0.249L66.542,111.889z M66.985,115.019l-1.551,0.242l-0.242-1.551l1.551-0.242L66.985,115.019z"/>
	<path fill="#FFFFFF" d="M57.422,117.55l-4.701-0.838L53,115.146l3.134,0.559l0.285-1.6l-1.567-0.279l0.279-1.567l1.567,0.279
		l0.281-1.578l-3.134-0.558l0.275-1.546l4.701,0.838L57.422,117.55z"/>
	<path fill="#FFFFFF" d="M51.115,116.426l-4.701-0.838l0.279-1.566l3.112,0.554l0.281-1.577l-3.112-0.555l0.835-4.689l4.701,0.837
		l-0.279,1.567l-3.155-0.563l-0.281,1.578l3.156,0.562L51.115,116.426z"/>
	<path fill="#FFFFFF" d="M43.78,115.501l-4.496-1.607l0.536-1.499l2.977,1.064l0.54-1.51l-2.977-1.063l1.604-4.486l4.496,1.607
		l-0.536,1.499l-3.018-1.079l-0.54,1.509l3.018,1.079L43.78,115.501z"/>
	<path fill="#FFFFFF" d="M37.081,112.647l-4.175-2.317l3.863-6.958l1.411,0.783l-3.08,5.547l1.392,0.772l3.08-5.547l1.372,0.762
		L37.081,112.647z M37.259,109.093l-1.392-0.772l0.762-1.372l1.391,0.772L37.259,109.093z"/>
	<path fill="#FFFFFF" d="M31.522,109.536l-1.372-0.762l1.556-2.803l-1.411-0.783l-1.556,2.803l-1.391-0.772l2.323-4.185l1.392,0.772
		l1.529-2.754l1.411,0.783l-1.529,2.754l1.373,0.763L31.522,109.536z"/>
	<path fill="#FFFFFF" d="M24.581,105.776l-3.463-3.287l1.096-1.154l2.293,2.177l1.104-1.163l-2.293-2.176l3.28-3.455l3.463,3.287
		l-1.096,1.154l-2.325-2.207l-1.104,1.163l2.325,2.206L24.581,105.776z"/>
	<path fill="#FFFFFF" d="M5.334,77.959l-0.611-1.47l7.347-3.058l0.611,1.47L5.334,77.959z"/>
	<path fill="#FFFFFF" d="M3.539,73.429l-0.356-3.141l1.604-0.183l0.177,1.56l4.733-0.536l-0.177-1.56l1.548-0.176l0.356,3.141
		L3.539,73.429z M4.786,70.105l-0.177-1.56l4.733-0.536l0.177,1.56L4.786,70.105z"/>
	<path fill="#FFFFFF" d="M2.93,66.877l-0.344-4.762L4.173,62l0.229,3.175l1.621-0.116l-0.114-1.588l1.587-0.114l0.114,1.587
		l1.599-0.115L8.98,61.653l1.565-0.113l0.344,4.763L2.93,66.877z"/>
	<path fill="#FFFFFF" d="M2.289,60.207l-0.087-4.774l7.957-0.145l0.03,1.613l-6.343,0.116l0.029,1.591l6.343-0.116l0.029,1.57
		L2.289,60.207z M5.454,58.58l-0.029-1.591l1.569-0.029l0.029,1.591L5.454,58.58z"/>
	<path fill="#FFFFFF" d="M2.565,52.223l1.22-4.616l1.539,0.407L4.516,51.07l1.55,0.409l0.808-3.056l4.605,1.217l-1.22,4.617
		L8.72,53.85l0.819-3.099l-1.55-0.41L7.17,53.44L2.565,52.223z"/>
	<path fill="#FFFFFF" d="M5.024,43.003l1.221-4.616l1.582,0.418l-0.809,3.056l1.517,0.401l0.809-3.056l1.539,0.407l-0.809,3.056
		l1.56,0.413l0.809-3.056l1.474,0.39l-1.221,4.616L9.661,44.23l0.413-1.56l-1.539-0.407l-0.413,1.56L5.024,43.003z M7.425,40.323
		l0.401-1.518l1.517,0.402l-0.401,1.517L7.425,40.323z M9.344,39.208l0.407-1.539l1.539,0.407l-0.407,1.539L9.344,39.208z
		 M10.47,41.174l0.413-1.56l1.56,0.413l-0.413,1.56L10.47,41.174z"/>
	<path fill="#FFFFFF" d="M10.053,31.073l2.656-3.967l1.323,0.885l-1.771,2.645l1.35,0.904l0.885-1.322l1.323,0.885l-0.885,1.323
		l1.332,0.892l1.771-2.645l1.304,0.873l-2.657,3.968L10.053,31.073z"/>
	<path fill="#FFFFFF" d="M13.612,25.747l2.664-3.963l1.321,0.888l-1.763,2.624l1.33,0.894l1.763-2.624l3.954,2.657l-2.664,3.963
		l-1.321-0.888l1.788-2.661l-1.33-0.894l-1.788,2.661L13.612,25.747z"/>
	<path fill="#FFFFFF" d="M18.561,19.088l3.799-2.893l0.964,1.266l-2.515,1.915l0.971,1.275l2.515-1.915l2.886,3.79l-3.799,2.893
		l-0.964-1.267l2.55-1.941l-0.971-1.275l-2.55,1.942L18.561,19.088z"/>
	<path fill="#FFFFFF" d="M23.607,15.246l3.799-2.893l4.821,6.332l-1.284,0.978L27.1,14.615l-1.266,0.964l3.843,5.048l-1.249,0.951
		L23.607,15.246z M26.792,16.836l1.266-0.964l0.951,1.249l-1.266,0.964L26.792,16.836z"/>
	<path fill="#FFFFFF" d="M28.949,10.94l1.322-0.846l1.727,2.7l1.359-0.87l-1.727-2.7l1.341-0.857l2.579,4.032l-1.341,0.857
		l1.697,2.654l-1.359,0.87l-1.697-2.654l-1.322,0.846L28.949,10.94z"/>
	<path fill="#FFFFFF" d="M35.824,7.239l4.532-1.503l0.501,1.511l-3,0.995l0.505,1.521l3-0.996l1.5,4.521l-4.532,1.503l-0.501-1.511
		l3.042-1.009l-0.505-1.521l-3.042,1.009L35.824,7.239z"/>
</g>
</svg>
