<?xml version="1.0" encoding="utf-8"?>
<!-- Generator: Adobe Illustrator 15.1.0, SVG Export Plug-In . SVG Version: 6.00 Build 0)  -->
<!DOCTYPE svg PUBLIC "-//W3C//DTD SVG 1.1//EN" "http://www.w3.org/Graphics/SVG/1.1/DTD/svg11.dtd">
<svg version="1.1" id="Layer_1" xmlns="http://www.w3.org/2000/svg" xmlns:xlink="http://www.w3.org/1999/xlink" x="0px" y="0px"
	 width="120px" height="120px" viewBox="0 0 120 120" enable-background="new 0 0 120 120" xml:space="preserve">
<g>
	<path fill="#FFFFFF" d="M115.393,36.088l-10.653-16.773L89.229,6.931L70.564,0.276L50.751,0.055L31.943,6.319L16.178,18.371
		L5.159,34.899L0.092,54.139l1.427,19.839l7.766,18.305l13.265,14.774l17.314,9.652l19.516,3.488l19.572-3.067l17.522-9.273
		L110.05,93.36l8.153-18.128l1.848-19.805L115.393,36.088z M109.574,83.418L99.229,98.314l-14.593,10.719l-17.28,5.388
		l-18.077-0.545l-16.916-6.408L18.424,95.893L8.987,80.408L5.081,62.681L7.106,44.63l7.755-16.395l12.646-12.996l16.152-8.154
		L61.581,4.63l17.734,3.521L94.96,17.26l11.849,13.729l6.771,16.839l0.951,18.128L109.574,83.418z"/>
	<polygon fill="#FFFFFF" points="69.823,18.643 60.06,18.05 58.789,4.496 72.589,5.322 	"/>
	<polygon fill="#FFFFFF" points="92.245,33.109 85.829,25.698 94.573,15.294 103.651,25.763 	"/>
	<polygon fill="#FFFFFF" points="102.006,60.238 101.509,50.431 114.783,47.657 115.497,61.52 	"/>
	<polygon fill="#FFFFFF" points="93.497,85.332 98.919,77.16 111.226,82.877 103.569,94.434 	"/>
	<polygon fill="#FFFFFF" points="68.545,101.103 77.879,98.168 83.873,110.38 70.682,114.538 	"/>
	<polygon fill="#FFFFFF" points="39.668,96.93 48.881,100.227 46.348,113.601 33.321,108.95 	"/>
	<polygon fill="#FFFFFF" points="20.647,77.11 25.989,85.338 15.904,94.437 8.345,82.814 	"/>
	<polygon fill="#FFFFFF" points="19.511,47.625 18.17,57.354 4.614,57.584 6.498,43.833 	"/>
	<polygon fill="#FFFFFF" points="38.027,22.31 30.665,28.777 20.273,20.034 30.67,10.886 	"/>
</g>
<g>
	<polygon fill="#FFFFFF" points="19.224,72.635 22.526,64.264 34.644,67.021 29.986,78.852 	"/>
	<polygon fill="#FFFFFF" points="67.438,66.798 69.597,75.537 58.14,80.364 55.079,68.02 	"/>
	<polygon fill="#FFFFFF" points="31.464,99.281 24.649,93.431 31.179,82.818 40.813,91.079 	"/>
	<path fill="#FFFFFF" d="M50.955,60.187l-11.297-0.701l-9.556,6.103l-4.17,10.57l2.826,11.006l8.731,7.252l11.298,0.702l9.554-6.103
		l4.169-10.574l-2.827-11.001L50.955,60.187z M54.506,77.946l-2.338,5.943l-5.379,3.431l-6.349-0.396l-4.918-4.075l-1.586-6.191
		l2.34-5.941l5.377-3.433l6.35,0.397l4.92,4.074L54.506,77.946z"/>
	<polygon fill="#FFFFFF" points="61.375,96.018 53.779,100.797 45.645,91.368 56.375,84.607 	"/>
	<polygon fill="#FFFFFF" points="41.26,52.536 50.212,53.02 51.458,65.433 38.806,64.758 	"/>
</g>
<g>
	<polygon fill="#FFFFFF" points="50.7,36.339 54.955,28.414 66.668,32.575 60.665,43.775 	"/>
	<polygon fill="#FFFFFF" points="99.264,36.2 100.39,45.132 88.45,48.582 86.847,35.963 	"/>
	<polygon fill="#FFFFFF" points="59.754,64.239 53.667,57.628 61.386,47.855 69.995,57.19 	"/>
	<path fill="#FFFFFF" d="M83.663,27.7l-11.141-2.023l-10.198,4.938l-5.374,10.013l1.527,11.259l7.826,8.228l11.138,2.021
		L87.643,57.2l5.371-10.015l-1.526-11.257L83.663,27.7z M85.123,45.755l-3.015,5.626l-5.742,2.779l-6.26-1.142l-4.409-4.623
		l-0.854-6.334l3.015-5.626l5.741-2.779l6.26,1.141l4.411,4.624L85.123,45.755z"/>
	<polygon fill="#FFFFFF" points="89.841,64.507 81.739,68.362 74.758,58.044 86.204,52.589 	"/>
	<polygon fill="#FFFFFF" points="74.927,18.963 83.76,20.494 83.55,32.969 71.064,30.815 	"/>
</g>
</svg>
