<?xml version="1.0" encoding="utf-8"?>
<!-- Generator: Adobe Illustrator 15.1.0, SVG Export Plug-In . SVG Version: 6.00 Build 0)  -->
<!DOCTYPE svg PUBLIC "-//W3C//DTD SVG 1.1//EN" "http://www.w3.org/Graphics/SVG/1.1/DTD/svg11.dtd">
<svg version="1.1" id="Layer_1" xmlns="http://www.w3.org/2000/svg" xmlns:xlink="http://www.w3.org/1999/xlink" x="0px" y="0px"
	 width="108.909px" height="108.909px" viewBox="0 0 108.909 108.909" enable-background="new 0 0 108.909 108.909"
	 xml:space="preserve">
<path fill="#FFFFFF" d="M104.699,32.814l-9.63-15.1L81.049,6.564l-16.87-5.99l-17.91-0.2l-17,5.64l-14.25,10.85l-9.96,14.88
	l-4.58,17.32l1.29,17.86l7.02,16.479l11.99,13.3l15.65,8.69l17.64,3.14l17.689-2.76l15.841-8.35l12.27-13.05l7.37-16.32l1.67-17.83
	L104.699,32.814z M62.39,19.645l6.09-4.31l7.43-0.68l6.77,3.12l4.311,6.09l0.689,7.42l-3.119,6.78l-6.091,4.3l-7.43,0.69l-6.78-3.12
	l-4.3-6.09l-0.689-7.43L62.39,19.645z M52.429,53.185l1.34-1.16l1.761-0.04l1.38,1.12l0.34,1.73l-0.859,1.55l-1.65,0.63l-1.67-0.57
	l-0.91-1.51L52.429,53.185z M23.459,20.564l5.2-5.35l7.17-2.03l7.24,1.82l5.35,5.2l2.03,7.18l-1.83,7.23l-5.19,5.35l-7.18,2.03
	l-7.23-1.83l-5.35-5.19l-2.04-7.18L23.459,20.564z M36.029,71.604l-5.96,4.48l-7.4,0.899l-6.86-2.91l-4.49-5.96l-0.9-7.41
	l2.92-6.859l5.96-4.49l7.4-0.9l6.87,2.92l4.48,5.96l0.9,7.399L36.029,71.604z M66.679,91.944l-4.909,5.61l-7.061,2.41l-7.319-1.45
	l-5.61-4.91l-2.4-7.06l1.44-7.32l4.91-5.61l7.06-2.41l7.32,1.45l5.609,4.91l2.41,7.061L66.679,91.944z M96.589,72.225l-5.77,4.729
	l-7.36,1.221l-6.979-2.63l-4.73-5.761l-1.22-7.359l2.63-6.98l5.76-4.74l7.36-1.21l6.979,2.62l4.73,5.77l1.22,7.359L96.589,72.225z"
	/>
</svg>
