<?xml version="1.0" encoding="utf-8"?>
<!-- Generator: Adobe Illustrator 15.1.0, SVG Export Plug-In . SVG Version: 6.00 Build 0)  -->
<!DOCTYPE svg PUBLIC "-//W3C//DTD SVG 1.1//EN" "http://www.w3.org/Graphics/SVG/1.1/DTD/svg11.dtd">
<svg version="1.1" id="Layer_1" xmlns="http://www.w3.org/2000/svg" xmlns:xlink="http://www.w3.org/1999/xlink" x="0px" y="0px"
	 width="120px" height="120px" viewBox="0 0 120 120" enable-background="new 0 0 120 120" xml:space="preserve">
<g>
	<path fill="#FFFFFF" d="M76.266,4.856l4.53,1.609l-0.543,1.527l-3.044-1.082l-0.528,1.486l3.045,1.081l-0.534,1.506l-3.046-1.081
		l-1.07,3.013L73.59,12.39L76.266,4.856z"/>
	<path fill="#FFFFFF" d="M81.19,10.009l1.485,0.527l-1.602,4.51l-1.485-0.528L81.19,10.009z M82.264,6.985l1.485,0.528L83.215,9.02
		l-1.486-0.527L82.264,6.985z"/>
	<path fill="#FFFFFF" d="M86.769,8.406l1.332,0.884l-3.551,5.347l2.665,1.769l-0.884,1.332l-3.996-2.653L86.769,8.406z"/>
	<path fill="#FFFFFF" d="M92.336,12.493l6.238,4.962l-4.961,6.239l-1.235-0.981l3.953-4.971l-1.269-1.009l-3.953,4.971l-1.251-0.996
		l3.952-4.971l-1.251-0.995l-3.953,4.97l-1.233-0.981L92.336,12.493z"/>
	<path fill="#FFFFFF" d="M103.656,21.958l2.578,4.044l-1.385,0.883l-1.707-2.677l-1.33,0.848l1.708,2.677l-1.349,0.86l-1.707-2.677
		l-1.366,0.871l1.707,2.678l-1.292,0.824l-2.578-4.044l2.658-1.696l0.871,1.367l1.348-0.86l-0.871-1.367L103.656,21.958z
		 M101.3,27.226l0.872,1.367l-1.366,0.872l-0.872-1.367L101.3,27.226z M103.521,27.732l0.859,1.348l-1.349,0.86l-0.859-1.348
		L103.521,27.732z M104.001,25.556l0.849,1.329l-1.329,0.848l-0.848-1.329L104.001,25.556z"/>
	<path fill="#FFFFFF" d="M109.679,31.361l0.849,1.33l-4.045,2.579l0.871,1.367l4.045-2.579l0.859,1.348l-5.421,3.457l-0.858-1.348
		l-1.321,0.842l-0.871-1.367l1.339-0.854l-0.849-1.329L109.679,31.361z"/>
	<path fill="#FFFFFF" d="M113.771,38.672l1.131,4.673l-1.576,0.381l-0.76-3.141l-1.533,0.371l0.761,3.141l-1.555,0.375l-0.759-3.14
		l-3.108,0.751l-0.371-1.532L113.771,38.672z"/>
	<path fill="#FFFFFF" d="M115.282,44.917l0.376,1.554l-3.13,0.756l0.376,1.554l3.13-0.756l0.376,1.554l-3.13,0.757l-0.376-1.554
		l-1.532,0.371l0.376,1.554l-3.108,0.752l-0.376-1.554l3.108-0.752l-0.375-1.554l-3.108,0.752l-0.377-1.554l3.108-0.752l0.377,1.554
		l1.531-0.371l-0.376-1.554L115.282,44.917z"/>
	<path fill="#FFFFFF" d="M98.594,103.232l-3.591,3.195l-1.078-1.209l2.414-2.148l-1.049-1.178l-2.412,2.146l-1.063-1.193
		l2.414-2.148l-2.127-2.389l1.179-1.047L98.594,103.232z"/>
	<path fill="#FFFFFF" d="M92.446,108.02l-1.414,0.746l-3.728-7.072l1.414-0.746L92.446,108.02z"/>
	<path fill="#FFFFFF" d="M89.628,109.533l-1.415,0.744l-2.992-5.676l-2.83,1.49l-0.744-1.414l4.243-2.236L89.628,109.533z"/>
	<path fill="#FFFFFF" d="M83.571,113.17l-1.462,0.59l-0.603-1.492l-1.503,0.605l-0.598-1.482l-1.483,0.598l0.598,1.482l-1.482,0.6
		l0.602,1.492l-1.451,0.584l-2.989-7.414l1.452-0.586l1.788,4.439l1.483-0.598l-0.588-1.463l1.481-0.598l0.59,1.463l1.504-0.607
		l-1.79-4.438l1.463-0.59L83.571,113.17z"/>
	<path fill="#FFFFFF" d="M64.771,114.408l-1.58,0.246l-0.246-1.58l1.579-0.246L64.771,114.408z M70.007,116.85l-4.739,0.74
		l-0.253-1.623l3.138-0.49l-0.243-1.559l-3.138,0.49l-0.247-1.58l3.138-0.49l-0.249-1.602l-3.139,0.49l-0.235-1.514l4.738-0.74
		l0.486,3.115l-1.602,0.25l0.247,1.58l1.602-0.25L70.007,116.85z M66.127,112.578l-1.603,0.25l-0.25-1.602l1.602-0.25
		L66.127,112.578z M66.572,115.723l-1.558,0.244l-0.243-1.559l1.558-0.244L66.572,115.723z"/>
	<path fill="#FFFFFF" d="M56.989,118.223l-1.552-0.275l0.84-4.723l-1.596-0.283l-0.841,4.721l-1.574-0.279l1.127-6.33l1.574,0.281
		l0.274-1.541l1.596,0.283l-0.279,1.564l1.552,0.275L56.989,118.223z"/>
	<path fill="#FFFFFF" d="M50.648,117.096l-4.733-0.844l0.284-1.596l3.181,0.566l0.276-1.551l-3.181-0.568l0.28-1.574l3.181,0.566
		l0.561-3.146l1.552,0.275L50.648,117.096z"/>
	<path fill="#FFFFFF" d="M43.526,116.088l-1.525-0.479l0.966-3.07l-1.525-0.48l-0.965,3.072l-1.525-0.48l0.966-3.07l1.525,0.479
		l0.473-1.504l-1.525-0.48l0.958-3.051l1.525,0.48l-0.958,3.051l1.525,0.48l0.958-3.053l1.525,0.48l-0.958,3.051l-1.525-0.479
		l-0.473,1.504l1.525,0.479L43.526,116.088z"/>
	<path fill="#FFFFFF" d="M2.841,73.57L2.45,68.779l1.616-0.133l0.263,3.221L5.9,71.738l-0.263-3.221l1.593-0.129l0.263,3.221
		l3.187-0.262l0.128,1.57L2.841,73.57z"/>
	<path fill="#FFFFFF" d="M2.345,67.121L2.23,65.527l7.974-0.574l0.115,1.594L2.345,67.121z"/>
	<path fill="#FFFFFF" d="M2.093,63.938l-0.115-1.594l6.401-0.463l-0.23-3.189l1.595-0.115l0.346,4.783L2.093,63.938z"/>
	<path fill="#FFFFFF" d="M1.233,55.501l0.403-1.524l1.556,0.411l0.415-1.567l1.545,0.409l0.409-1.546l-1.545-0.409l0.408-1.545
		l-1.557-0.412l0.4-1.513l7.728,2.043l-0.399,1.514L5.97,50.138l-0.409,1.546l1.524,0.403l-0.409,1.546L5.153,53.23l-0.415,1.567
		l4.627,1.224l-0.403,1.524L1.233,55.501z"/>
	<path fill="#FFFFFF" d="M4.49,43.068l1.286-4.621l1.583,0.44l-0.852,3.06l1.519,0.423l0.851-3.06l1.54,0.429l-0.852,3.059
		l1.562,0.435l0.852-3.059l1.476,0.411l-1.286,4.621L9.132,44.36l0.435-1.562l-1.54-0.428l-0.435,1.562L4.49,43.068z M6.937,40.407
		l0.423-1.519l1.519,0.423L8.456,40.83L6.937,40.407z M8.878,39.311l0.428-1.541l1.541,0.429l-0.429,1.541L8.878,39.311z
		 M9.984,41.302l0.435-1.562l1.562,0.435l-0.435,1.562L9.984,41.302z"/>
	<path fill="#FFFFFF" d="M9.632,31.202l0.877-1.31l3.986,2.668l0.902-1.347l-3.986-2.668l0.89-1.328l5.342,3.577l-0.889,1.328
		l1.301,0.871l-0.901,1.347l-1.32-0.883l-0.877,1.31L9.632,31.202z"/>
	<path fill="#FFFFFF" d="M13.216,25.85l2.674-3.995l1.347,0.902l-1.797,2.685l1.31,0.877l1.797-2.685l1.329,0.89l-1.797,2.685
		l2.657,1.778l-0.877,1.311L13.216,25.85z"/>
	<path fill="#FFFFFF" d="M18.25,19.194l1.272-0.968l1.951,2.562l1.272-0.969l-1.951-2.562l1.272-0.968l1.951,2.562l-1.272,0.969
		l0.955,1.254l1.272-0.969l1.938,2.544l-1.272,0.968l-1.938-2.544l-1.271,0.969l1.937,2.544l-1.271,0.969l-1.938-2.544l1.272-0.968
		l-0.956-1.254l-1.272,0.968L18.25,19.194z"/>
</g>
<g display="none">
	<path display="inline" fill="#FFFFFF" d="M76.504,4.674l1.5,0.533l-2.663,7.5l-1.5-0.533L76.504,4.674z"/>
	<path display="inline" fill="#FFFFFF" d="M79.52,5.745l2.979,1.058l-0.54,1.521l-1.479-0.525l-1.594,4.489l1.479,0.525
		l-0.521,1.469l-2.979-1.058L79.52,5.745z M81.959,8.323l1.479,0.525l-1.594,4.489l-1.479-0.525L81.959,8.323z"/>
	<path display="inline" fill="#FFFFFF" d="M86.957,8.218l3.967,2.658l-0.887,1.322l-2.645-1.772l-0.904,1.35l1.322,0.886
		l-0.886,1.322l-1.322-0.886l-0.892,1.331l2.645,1.772l-0.874,1.304l-3.967-2.658L86.957,8.218z"/>
	<path display="inline" fill="#FFFFFF" d="M92.509,12.258l3.737,2.972l-4.953,6.229l-1.264-1.004l3.949-4.966l-1.246-0.991
		l-3.948,4.966l-1.229-0.977L92.509,12.258z M91.749,15.735l1.246,0.991l-0.978,1.229l-1.245-0.991L91.749,15.735z"/>
	<path display="inline" fill="#FFFFFF" d="M97.507,16.231l3.737,2.972l-0.991,1.246l-2.474-1.968l-0.998,1.254l2.475,1.968
		l-2.965,3.729l-3.737-2.972l0.99-1.246l2.509,1.995l0.997-1.254l-2.509-1.995L97.507,16.231z"/>
	<path display="inline" fill="#FFFFFF" d="M105.465,24.359l2.567,4.026l-1.379,0.879l-1.699-2.665l-1.324,0.844l1.7,2.666
		l-1.342,0.855l-1.7-2.665l-1.36,0.868l1.7,2.665l-1.286,0.82l-2.567-4.026l2.646-1.688l0.867,1.361l1.342-0.856l-0.867-1.36
		L105.465,24.359z M103.12,29.604l0.868,1.36l-1.36,0.868l-0.868-1.36L103.12,29.604z M105.33,30.109l0.855,1.342l-1.342,0.856
		l-0.855-1.342L105.33,30.109z M105.81,27.941l0.844,1.323l-1.323,0.844l-0.844-1.324L105.81,27.941z"/>
	<path display="inline" fill="#FFFFFF" d="M112.369,34.569l1.752,4.441l-1.48,0.584l-1.168-2.961l-1.511,0.596l0.584,1.48
		l-1.481,0.584l-0.584-1.48l-1.49,0.588l1.168,2.961l-1.46,0.576l-1.752-4.442L112.369,34.569z"/>
	<path display="inline" fill="#FFFFFF" d="M114.58,41.402l1.122,4.641l-1.547,0.374l-0.743-3.072l-1.558,0.376l0.742,3.073
		l-4.63,1.119l-1.122-4.641l1.547-0.374l0.753,3.116l1.559-0.377l-0.754-3.115L114.58,41.402z"/>
	<path display="inline" fill="#FFFFFF" d="M116.076,47.591l1.122,4.641l-1.547,0.374l-0.743-3.073l-1.558,0.377l0.742,3.072
		l-4.63,1.12l-1.122-4.641l1.547-0.374l0.753,3.115l1.559-0.376l-0.754-3.116L116.076,47.591z"/>
	<path display="inline" fill="#FFFFFF" d="M117.979,55.706l-0.447,4.753l-7.923-0.745l0.151-1.607l6.316,0.594l0.149-1.584
		l-6.316-0.594l0.146-1.563L117.979,55.706z M114.651,56.969l-0.148,1.584l-1.563-0.147l0.148-1.584L114.651,56.969z"/>
	<path display="inline" fill="#FFFFFF" d="M117.361,62.042l-0.146,1.563l-3.191-0.299l-0.15,1.606l3.191,0.299l-0.148,1.585
		l-4.766-0.447l0.149-1.584l-3.137-0.294l0.15-1.607l3.137,0.295l0.146-1.563L117.361,62.042z"/>
	<path display="inline" fill="#FFFFFF" d="M116.886,68.649l-0.639,4.731l-1.577-0.213l0.423-3.133l-1.588-0.215l-0.423,3.133
		l-4.722-0.637l0.64-4.732l1.577,0.213l-0.429,3.177l1.588,0.215l0.429-3.177L116.886,68.649z"/>
	<path display="inline" fill="#FFFFFF" d="M103.36,97.328l-1.09,1.16l-5.798-5.452l1.09-1.159L103.36,97.328z"/>
	<path display="inline" fill="#FFFFFF" d="M101.152,99.676l-2.165,2.304l-1.176-1.105l1.075-1.144l-3.471-3.263l-1.075,1.143
		l-1.136-1.067l2.165-2.303L101.152,99.676z M97.812,100.874l-1.075,1.144l-3.471-3.264l1.075-1.144L97.812,100.874z"/>
	<path display="inline" fill="#FFFFFF" d="M95.729,105.494l-4.082,2.478l-0.826-1.36l2.722-1.652l-0.843-1.389l-1.361,0.826
		l-0.825-1.361l1.36-0.825l-0.832-1.37l-2.721,1.651l-0.814-1.342l4.081-2.478L95.729,105.494z"/>
	<path display="inline" fill="#FFFFFF" d="M89.876,108.813l-4.224,2.227l-3.711-7.04l1.428-0.752l2.958,5.612l1.408-0.742
		l-2.958-5.612l1.388-0.732L89.876,108.813z M86.998,106.719l-1.408,0.742l-0.731-1.389l1.408-0.742L86.998,106.719z"/>
	<path display="inline" fill="#FFFFFF" d="M84.085,111.982l-4.298,2.08l-0.693-1.433l2.845-1.377l-0.698-1.442l-2.845,1.377
		l-2.076-4.288l4.298-2.08l0.693,1.433l-2.885,1.396l0.698,1.442l2.886-1.396L84.085,111.982z"/>
	<path display="inline" fill="#FFFFFF" d="M65.192,113.71l-1.572,0.245l-0.245-1.572l1.572-0.245L65.192,113.71z M70.404,116.141
		l-4.718,0.736l-0.252-1.616l3.123-0.487l-0.241-1.551l-3.124,0.487l-0.245-1.572l3.123-0.487l-0.248-1.595l-3.124,0.487
		l-0.234-1.507l4.718-0.736l0.483,3.102l-1.595,0.249l0.246,1.572l1.594-0.249L70.404,116.141z M66.542,111.889l-1.595,0.249
		l-0.249-1.595l1.595-0.249L66.542,111.889z M66.985,115.019l-1.551,0.242l-0.242-1.551l1.551-0.242L66.985,115.019z"/>
	<path display="inline" fill="#FFFFFF" d="M57.422,117.55l-4.701-0.838L53,115.146l3.134,0.559l0.285-1.6l-1.567-0.279l0.279-1.567
		l1.567,0.279l0.281-1.578l-3.134-0.558l0.275-1.546l4.701,0.838L57.422,117.55z"/>
	<path display="inline" fill="#FFFFFF" d="M51.115,116.426l-4.701-0.838l0.279-1.566l3.112,0.554l0.281-1.577l-3.112-0.555
		l0.835-4.689l4.701,0.837l-0.279,1.567l-3.155-0.563l-0.281,1.578l3.156,0.562L51.115,116.426z"/>
	<path display="inline" fill="#FFFFFF" d="M43.78,115.501l-4.496-1.607l0.536-1.499l2.977,1.064l0.54-1.51l-2.977-1.063l1.604-4.486
		l4.496,1.607l-0.536,1.499l-3.018-1.079l-0.54,1.509l3.018,1.079L43.78,115.501z"/>
	<path display="inline" fill="#FFFFFF" d="M37.081,112.647l-4.175-2.317l3.863-6.958l1.411,0.783l-3.08,5.547l1.392,0.772
		l3.08-5.547l1.372,0.762L37.081,112.647z M37.259,109.093l-1.392-0.772l0.762-1.372l1.391,0.772L37.259,109.093z"/>
	<path display="inline" fill="#FFFFFF" d="M31.522,109.536l-1.372-0.762l1.556-2.803l-1.411-0.783l-1.556,2.803l-1.391-0.772
		l2.323-4.185l1.392,0.772l1.529-2.754l1.411,0.783l-1.529,2.754l1.373,0.763L31.522,109.536z"/>
	<path display="inline" fill="#FFFFFF" d="M24.581,105.776l-3.463-3.287l1.096-1.154l2.293,2.177l1.104-1.163l-2.293-2.176
		l3.28-3.455l3.463,3.287l-1.096,1.154l-2.325-2.207l-1.104,1.163l2.325,2.206L24.581,105.776z"/>
	<path display="inline" fill="#FFFFFF" d="M5.334,77.959l-0.611-1.47l7.347-3.058l0.611,1.47L5.334,77.959z"/>
	<path display="inline" fill="#FFFFFF" d="M3.539,73.429l-0.356-3.141l1.604-0.183l0.177,1.56l4.733-0.536l-0.177-1.56l1.548-0.176
		l0.356,3.141L3.539,73.429z M4.786,70.105l-0.177-1.56l4.733-0.536l0.177,1.56L4.786,70.105z"/>
	<path display="inline" fill="#FFFFFF" d="M2.93,66.877l-0.344-4.762L4.173,62l0.229,3.175l1.621-0.116l-0.114-1.588l1.587-0.114
		l0.114,1.587l1.599-0.115L8.98,61.653l1.565-0.113l0.344,4.763L2.93,66.877z"/>
	<path display="inline" fill="#FFFFFF" d="M2.289,60.207l-0.087-4.774l7.957-0.145l0.03,1.613l-6.343,0.116l0.029,1.591l6.343-0.116
		l0.029,1.57L2.289,60.207z M5.454,58.58l-0.029-1.591l1.569-0.029l0.029,1.591L5.454,58.58z"/>
	<path display="inline" fill="#FFFFFF" d="M2.565,52.223l1.22-4.616l1.539,0.407L4.516,51.07l1.55,0.409l0.808-3.056l4.605,1.217
		l-1.22,4.617L8.72,53.85l0.819-3.099l-1.55-0.41L7.17,53.44L2.565,52.223z"/>
	<path display="inline" fill="#FFFFFF" d="M5.024,43.003l1.221-4.616l1.582,0.418l-0.809,3.056l1.517,0.401l0.809-3.056l1.539,0.407
		l-0.809,3.056l1.56,0.413l0.809-3.056l1.474,0.39l-1.221,4.616L9.661,44.23l0.413-1.56l-1.539-0.407l-0.413,1.56L5.024,43.003z
		 M7.425,40.323l0.401-1.518l1.517,0.402l-0.401,1.517L7.425,40.323z M9.344,39.208l0.407-1.539l1.539,0.407l-0.407,1.539
		L9.344,39.208z M10.47,41.174l0.413-1.56l1.56,0.413l-0.413,1.56L10.47,41.174z"/>
	<path display="inline" fill="#FFFFFF" d="M10.053,31.073l2.656-3.967l1.323,0.885l-1.771,2.645l1.35,0.904l0.885-1.322l1.323,0.885
		l-0.885,1.323l1.332,0.892l1.771-2.645l1.304,0.873l-2.657,3.968L10.053,31.073z"/>
	<path display="inline" fill="#FFFFFF" d="M13.612,25.747l2.664-3.963l1.321,0.888l-1.763,2.624l1.33,0.894l1.763-2.624l3.954,2.657
		l-2.664,3.963l-1.321-0.888l1.788-2.661l-1.33-0.894l-1.788,2.661L13.612,25.747z"/>
	<path display="inline" fill="#FFFFFF" d="M18.561,19.088l3.799-2.893l0.964,1.266l-2.515,1.915l0.971,1.275l2.515-1.915l2.886,3.79
		l-3.799,2.893l-0.964-1.267l2.55-1.941l-0.971-1.275l-2.55,1.942L18.561,19.088z"/>
	<path display="inline" fill="#FFFFFF" d="M23.607,15.246l3.799-2.893l4.821,6.332l-1.284,0.978L27.1,14.615l-1.266,0.964
		l3.843,5.048l-1.249,0.951L23.607,15.246z M26.792,16.836l1.266-0.964l0.951,1.249l-1.266,0.964L26.792,16.836z"/>
	<path display="inline" fill="#FFFFFF" d="M28.949,10.94l1.322-0.846l1.727,2.7l1.359-0.87l-1.727-2.7l1.341-0.857l2.579,4.032
		l-1.341,0.857l1.697,2.654l-1.359,0.87l-1.697-2.654l-1.322,0.846L28.949,10.94z"/>
	<path display="inline" fill="#FFFFFF" d="M35.824,7.239l4.532-1.503l0.501,1.511l-3,0.995l0.505,1.521l3-0.996l1.5,4.521
		l-4.532,1.503l-0.501-1.511l3.042-1.009l-0.505-1.521l-3.042,1.009L35.824,7.239z"/>
</g>
</svg>
