<?xml version="1.0" encoding="utf-8"?>
<!-- Generator: Adobe Illustrator 15.1.0, SVG Export Plug-In . SVG Version: 6.00 Build 0)  -->
<!DOCTYPE svg PUBLIC "-//W3C//DTD SVG 1.1//EN" "http://www.w3.org/Graphics/SVG/1.1/DTD/svg11.dtd">
<svg version="1.1" id="Layer_1" xmlns="http://www.w3.org/2000/svg" xmlns:xlink="http://www.w3.org/1999/xlink" x="0px" y="0px"
	 width="120px" height="120px" viewBox="0 0 120 120" enable-background="new 0 0 120 120" xml:space="preserve">
<g>
	<path fill="#FFFFFF" d="M76.989,2.823l1.523,0.541l-1.646,4.634l1.566,0.556l1.646-4.634l1.544,0.549l-2.205,6.21l-1.545-0.548
		l-0.537,1.512l-1.565-0.556l0.544-1.534l-1.522-0.541L76.989,2.823z"/>
	<path fill="#FFFFFF" d="M83.192,5.026l1.544,0.548l-2.741,7.724L80.45,12.75L83.192,5.026z"/>
	<path fill="#FFFFFF" d="M87.683,6.5l4.146,2.644l-0.882,1.382l-2.745-1.75l-0.887,1.392l2.744,1.75l-2.638,4.136l-4.146-2.644
		l0.881-1.382l2.783,1.775l0.888-1.392l-2.783-1.775L87.683,6.5z"/>
	<path fill="#FFFFFF" d="M93.528,10.662l1.282,1.02l-4.08,5.132l1.301,1.034l4.08-5.132l1.266,1.006l-5.101,6.415l-3.85-3.061
		L93.528,10.662z"/>
	<path fill="#FFFFFF" d="M98.651,14.736l3.849,3.06l-5.101,6.415l-1.301-1.034l4.066-5.114l-1.283-1.02l-4.066,5.114l-1.266-1.006
		L98.651,14.736z M97.869,18.317l1.282,1.02l-1.006,1.266l-1.283-1.021L97.869,18.317z"/>
	<path fill="#FFFFFF" d="M105.142,20.344l0.882,1.382l-5.547,3.538l1.763,2.764l-1.382,0.881l-2.645-4.146L105.142,20.344z"/>
	<path fill="#FFFFFF" d="M110.413,28.653l2.645,4.146l-6.91,4.407l-0.894-1.401l5.509-3.513l-0.882-1.382l-5.509,3.513l-0.869-1.363
		L110.413,28.653z M108.509,31.785l0.881,1.382l-1.362,0.869l-0.882-1.382L108.509,31.785z"/>
	<path fill="#FFFFFF" d="M114.807,35.605l1.469,4.717l-1.565,0.487l-0.981-3.152l-1.564,0.487l0.493,1.587l-1.564,0.487l0.487,1.565
		l-3.152,0.981L107.94,41.2l3.152-0.981l-0.494-1.587l-3.152,0.981l-0.486-1.565L114.807,35.605z M114.223,39.244l0.487,1.565
		l-1.565,0.487l-0.487-1.565L114.223,39.244z"/>
	<path fill="#FFFFFF" d="M116.655,42.29l1.15,4.757l-1.594,0.385l-0.38-1.571l-6.395,1.546l-0.38-1.571l6.396-1.546l-0.391-1.615
		L116.655,42.29z"/>
	<path fill="#FFFFFF" d="M119.727,53.601l-0.28,4.909l-1.682-0.096l0.186-3.25l-1.613-0.092l-0.186,3.25l-1.637-0.093l0.186-3.25
		l-1.659-0.095l-0.186,3.25l-1.568-0.089l0.28-4.909l3.228,0.184l-0.095,1.659l1.637,0.093l0.095-1.659L119.727,53.601z
		 M114.609,56.569l-0.095,1.66l-1.659-0.095l0.095-1.659L114.609,56.569z M116.151,58.322l-0.094,1.636l-1.637-0.093l0.094-1.636
		L116.151,58.322z M117.856,56.801l-0.092,1.614l-1.613-0.092l0.092-1.614L117.856,56.801z"/>
	<path fill="#FFFFFF" d="M118.809,65.29l-0.304,3.241l-1.654-0.155l0.15-1.609l-4.885-0.457l-0.15,1.608l-1.598-0.149l0.304-3.241
		L118.809,65.29z M116.851,68.376l-0.151,1.609l-4.884-0.458l0.15-1.609L116.851,68.376z"/>
	<path fill="#FFFFFF" d="M118.274,73.499l-1.736,4.602l-1.533-0.579l1.157-3.067l-1.565-0.59l-0.579,1.533l-1.533-0.578l0.578-1.534
		l-1.544-0.583l-1.157,3.067l-1.513-0.57l1.736-4.601L118.274,73.499z"/>
	<path fill="#FFFFFF" d="M115.619,79.927l-2.024,4.481l-1.493-0.675l1.34-2.968l-1.504-0.679l-1.34,2.967l-4.472-2.02l2.024-4.481
		l1.494,0.675l-1.359,3.008l1.505,0.68l1.358-3.009L115.619,79.927z"/>
	<path fill="#FFFFFF" d="M112.921,85.9l-0.675,1.494l-7.469-3.374l0.675-1.494L112.921,85.9z"/>
	<path fill="#FFFFFF" d="M111.386,90.472l-4.042,5.19l-1.312-1.021l3.035-3.897l-3.861-3.008l-2.015,2.587l1.275,0.993l1.008-1.294
		l1.293,1.008l-2.028,2.604l-3.862-3.008l4.043-5.19L111.386,90.472z"/>
	<path fill="#FFFFFF" d="M105.736,97.17l-1.138,1.211l-1.211-1.139l-1.123,1.194l-1.194-1.123l-1.122,1.194l2.404,2.261
		l-1.122,1.194l-5.988-5.629l1.123-1.194l2.405,2.262l1.122-1.194l1.178,1.106l1.123-1.194l-3.583-3.368l1.139-1.211L105.736,97.17z
		"/>
	<path fill="#FFFFFF" d="M45.485,117.178l-1.568-0.393l1.195-4.771l-1.612-0.403l-1.194,4.771l-1.59-0.398l1.601-6.394l1.59,0.398
		l0.39-1.557l1.612,0.403l-0.395,1.579l1.568,0.393L45.485,117.178z"/>
	<path fill="#FFFFFF" d="M37.69,114.737l-1.433-0.796l3.978-7.165l1.433,0.796L37.69,114.737z"/>
	<path fill="#FFFFFF" d="M34.806,113.136l-4.299-2.387l0.795-1.434l2.846,1.58l0.801-1.442l-2.846-1.58l2.381-4.29l4.3,2.387
		l-0.796,1.434l-2.886-1.603l-0.801,1.443l2.886,1.602L34.806,113.136z"/>
	<path fill="#FFFFFF" d="M29.082,109.957l-1.433-0.796l3.182-5.732l-1.453-0.807l-3.182,5.732l-1.413-0.784l3.978-7.165l4.299,2.387
		L29.082,109.957z"/>
	<path fill="#FFFFFF" d="M21.809,105.439l-3.293-3.652l6.087-5.488l1.113,1.234l-4.853,4.375l1.098,1.218l4.853-4.375l1.083,1.2
		L21.809,105.439z M23.17,102.036l-1.098-1.218l1.201-1.082l1.098,1.218L23.17,102.036z"/>
	<path fill="#FFFFFF" d="M17.397,100.58L16.3,99.362l4.887-4.405l-2.195-2.435l1.217-1.098l3.292,3.652L17.397,100.58z"/>
	<path fill="#FFFFFF" d="M9.606,91.839l-2.049-4.47l7.45-3.415l0.692,1.511l-5.939,2.723l0.683,1.489l5.939-2.722l0.673,1.469
		L9.606,91.839z M11.923,88.999l-0.683-1.49l1.47-0.674l0.683,1.49L11.923,88.999z"/>
	<path fill="#FFFFFF" d="M6.853,85.668l-1.936-4.545l1.508-0.642l1.293,3.036l1.508-0.642l-0.651-1.529l1.508-0.643l-0.643-1.508
		l3.037-1.294l0.643,1.509l-3.037,1.293l0.651,1.529l3.037-1.294l0.642,1.508L6.853,85.668z M7.067,81.989l-0.642-1.508l1.508-0.643
		l0.643,1.508L7.067,81.989z"/>
	<path fill="#FFFFFF" d="M4.123,79.52l-1.771-4.563l1.528-0.593l0.584,1.507l6.134-2.38l0.585,1.507l-6.134,2.38l0.601,1.549
		L4.123,79.52z"/>
	<path fill="#FFFFFF" d="M1.375,68.282l-0.354-4.904l1.68-0.121l0.234,3.247l1.612-0.116l-0.234-3.247l1.635-0.118l0.234,3.247
		l1.657-0.119l-0.234-3.247l1.566-0.113l0.354,4.904l-3.224,0.232l-0.12-1.657l-1.635,0.118l0.12,1.657L1.375,68.282z M2.818,64.869
		l-0.116-1.612l1.612-0.116l0.116,1.612L2.818,64.869z M4.314,63.141l-0.118-1.635l1.635-0.118l0.118,1.635L4.314,63.141z
		 M6.069,64.68l-0.12-1.657l1.658-0.119l0.12,1.657L6.069,64.68z"/>
	<path fill="#FFFFFF" d="M0.273,55.282l0.568-3.206l1.637,0.29l-0.282,1.591l4.831,0.856l0.282-1.592l1.581,0.28l-0.568,3.206
		L0.273,55.282z M2.478,52.366l0.282-1.592L7.59,51.63l-0.282,1.591L2.478,52.366z"/>
	<path fill="#FFFFFF" d="M1.781,48.388l1.257-4.754l1.585,0.419l-0.838,3.169l1.618,0.428l0.419-1.584l1.584,0.419l-0.419,1.584
		l1.596,0.422l0.838-3.169l1.563,0.413l-1.257,4.754L1.781,48.388z"/>
	<path fill="#FFFFFF" d="M3.464,42.023l1.257-4.754l1.585,0.419l-0.833,3.147l1.596,0.422l0.833-3.147l4.743,1.254l-1.257,4.754
		l-1.584-0.419l0.844-3.191l-1.596-0.421l-0.844,3.191L3.464,42.023z"/>
	<path fill="#FFFFFF" d="M5.903,34.251l0.824-1.417l7.086,4.119l-0.824,1.417L5.903,34.251z"/>
	<path fill="#FFFFFF" d="M7.851,31.127l3.66-5.467l1.381,0.925l-2.748,4.105l4.067,2.723l1.824-2.724l-1.343-0.899l-0.912,1.362
		l-1.362-0.912l1.836-2.743l4.067,2.723l-3.66,5.467L7.851,31.127z"/>
	<path fill="#FFFFFF" d="M12.398,24.001l0.981-1.341l1.341,0.981l0.968-1.323l1.323,0.967l0.967-1.323l-2.664-1.949l0.968-1.323
		l6.633,4.852l-0.968,1.323l-2.665-1.949l-0.968,1.323l-1.304-0.955l-0.968,1.323l3.969,2.903l-0.981,1.341L12.398,24.001z"/>
</g>
</svg>
