<?xml version="1.0" encoding="utf-8"?>
<!-- Generator: Adobe Illustrator 15.1.0, SVG Export Plug-In . SVG Version: 6.00 Build 0)  -->
<!DOCTYPE svg PUBLIC "-//W3C//DTD SVG 1.1//EN" "http://www.w3.org/Graphics/SVG/1.1/DTD/svg11.dtd">
<svg version="1.1" id="Layer_1" xmlns="http://www.w3.org/2000/svg" xmlns:xlink="http://www.w3.org/1999/xlink" x="0px" y="0px"
	 width="120px" height="120px" viewBox="0 0 120 120" enable-background="new 0 0 120 120" xml:space="preserve">
<g>
	<path fill="#FFFFFF" d="M76.077,4.252l1.491,0.529l-1.596,4.495l-1.491-0.53L76.077,4.252z M75.973,9.276l1.533,0.544l-0.536,1.512
		l-1.534-0.544L75.973,9.276z M78.113,3.248l1.533,0.544l-0.544,1.534l-1.534-0.544L78.113,3.248z"/>
	<path fill="#FFFFFF" d="M85.861,14.682l-1.464-0.602l0.619-1.505l-1.504-0.619l0.61-1.484L82.64,9.86l-0.611,1.484l-1.483-0.611
		l-0.619,1.504l-1.453-0.598l3.063-7.44l1.454,0.599L81.156,9.25L82.64,9.86l0.603-1.463l1.483,0.611l-0.603,1.463l1.505,0.62
		l1.833-4.452l1.464,0.603L85.861,14.682z"/>
	<path fill="#FFFFFF" d="M91.52,9.35l3.768,2.997l-0.999,1.256l-2.512-1.998l-1.02,1.282l1.256,0.999l-0.999,1.256l-1.256-1
		l-1.007,1.265l2.513,1.998l-0.985,1.238l-3.768-2.997L91.52,9.35z"/>
	<path fill="#FFFFFF" d="M96.52,13.369l3.741,2.976l-0.999,1.256l-2.503-1.991l-1.02,1.282l3.776,3.003l-0.984,1.238l-3.776-3.003
		l-0.999,1.256l3.776,3.003l-0.993,1.248l-5.015-3.989L96.52,13.369z M97.258,20.122l1.273,1.013l-0.999,1.256l-1.273-1.013
		L97.258,20.122z M98.032,16.623l1.229,0.978l-1.02,1.282l-1.229-0.978L98.032,16.623z"/>
	<path fill="#FFFFFF" d="M98.223,25.597l-0.898-1.33l1.329-0.899l0.899,1.329L98.223,25.597z M100.43,26.015l-0.887-1.311
		l3.97-2.685l0.887,1.311L100.43,26.015z M103.513,22.019l-0.911-1.348l1.348-0.911l0.911,1.348L103.513,22.019z"/>
	<path fill="#FFFFFF" d="M108.47,26.64l1.713,2.687l-1.371,0.875l-0.851-1.334l-4.051,2.583l0.852,1.334l-1.325,0.845l-1.714-2.688
		L108.47,26.64z M108.812,30.202l0.851,1.334l-4.05,2.583l-0.851-1.334L108.812,30.202z"/>
	<path fill="#FFFFFF" d="M112.694,32.783l1.853,4.443l-1.481,0.618l-1.235-2.962l-1.512,0.63l0.617,1.481l-1.48,0.617l-0.617-1.481
		l-1.492,0.622l1.235,2.962l-1.461,0.609l-1.853-4.443L112.694,32.783z"/>
	<path fill="#FFFFFF" d="M115.034,39.777l1.132,4.679l-1.561,0.377l-0.749-3.098l-1.57,0.38l0.749,3.098l-4.669,1.129l-1.132-4.68
		l1.561-0.377l0.759,3.141l1.571-0.379l-0.76-3.142L115.034,39.777z"/>
	<path fill="#FFFFFF" d="M116.538,46l0.377,1.56l-7.799,1.886l-0.377-1.56L116.538,46z"/>
	<path fill="#FFFFFF" d="M117.81,49.697l0.681,6.405l-1.618,0.172l-0.511-4.81l-4.766,0.506l0.34,3.192l1.573-0.167l-0.17-1.596
		l1.597-0.169l0.342,3.213l-4.766,0.507l-0.682-6.405L117.81,49.697z"/>
	<path fill="#FFFFFF" d="M118.014,59.019l-0.151,1.62l-1.62-0.152l-0.15,1.598l-1.597-0.149l-0.15,1.598l3.219,0.302l-0.15,1.598
		l-8.012-0.751l0.15-1.598l3.218,0.302l0.149-1.599l1.576,0.148l0.149-1.598l-4.793-0.449l0.151-1.62L118.014,59.019z"/>
	<path fill="#FFFFFF" d="M95.673,95.297l-1.114,1.187l-1.169-1.1l1.114-1.186L95.673,95.297z M100.231,97.411l-1.083,1.153
		l-3.476-3.268l1.084-1.152L100.231,97.411z M100.333,99.679l-1.114,1.187l-1.186-1.115l1.115-1.186L100.333,99.679z"/>
	<path fill="#FFFFFF" d="M86.282,100.793l1.364-0.802l0.825,1.402l1.402-0.825l0.813,1.384l1.384-0.814l-0.813-1.383l1.383-0.814
		l-0.824-1.401l1.354-0.797l4.079,6.936l-1.355,0.797l-2.44-4.15l-1.383,0.813l0.802,1.364l-1.383,0.813l-0.803-1.363l-1.401,0.824
		l2.439,4.15l-1.363,0.802L86.282,100.793z"/>
	<path fill="#FFFFFF" d="M88.611,108.491l-4.258,2.245l-0.749-1.42l2.839-1.496l-0.764-1.449l-1.419,0.748l-0.749-1.42l1.42-0.748
		l-0.754-1.43l-2.839,1.497l-0.738-1.399l4.259-2.245L88.611,108.491z"/>
	<path fill="#FFFFFF" d="M82.312,112.314l-4.517,1.568l-0.526-1.517l3.021-1.049l-0.537-1.547l-4.559,1.581l-0.519-1.494
		l4.559-1.582l-0.525-1.516l-4.56,1.581l-0.521-1.505l6.054-2.102L82.312,112.314z M76.213,109.323l-1.537,0.534l-0.526-1.517
		l1.538-0.533L76.213,109.323z M78.753,111.852l-1.484,0.515l-0.537-1.548l1.485-0.516L78.753,111.852z"/>
	<path fill="#FFFFFF" d="M69.37,108.739l1.563-0.244l0.739,4.735l-1.563,0.244L69.37,108.739z M70.688,106.921l1.584-0.247
		l0.248,1.586l-1.586,0.247L70.688,106.921z M71.672,113.23l1.607-0.251l0.251,1.607l-1.607,0.251L71.672,113.23z"/>
	<path fill="#FFFFFF" d="M62.078,114.772l-1.568,0.211l-0.642-4.76l1.569-0.212L62.078,114.772z M65.455,115.958l-3.159,0.426
		l-0.218-1.611l1.568-0.212l-0.643-4.761l-1.567,0.212l-0.21-1.558l3.158-0.426L65.455,115.958z"/>
	<path fill="#FFFFFF" d="M57.249,116.48l-4.74-0.844l0.281-1.581l3.16,0.563l0.288-1.612l-1.58-0.282l0.281-1.58l1.58,0.281
		l0.283-1.591l-3.16-0.563l0.277-1.558l4.74,0.844L57.249,116.48z"/>
	<path fill="#FFFFFF" d="M50.896,115.35l-4.74-0.844l0.281-1.58l3.138,0.559l0.283-1.591l-3.138-0.559l0.842-4.729l4.74,0.844
		l-0.281,1.58l-3.182-0.566l-0.283,1.591l3.182,0.566L50.896,115.35z"/>
	<path fill="#FFFFFF" d="M44.406,114.242l-1.57-0.333l1.664-7.85l1.57,0.333L44.406,114.242z"/>
	<path fill="#FFFFFF" d="M39.536,113.037l-5.631-3.127l0.79-1.423l4.229,2.349l2.326-4.19l-2.806-1.558l-0.768,1.384l1.402,0.779
		l-0.779,1.402l-2.826-1.568l2.327-4.189l5.631,3.127L39.536,113.037z"/>
	<path fill="#FFFFFF" d="M32.523,109.169l-1.422-0.79l0.79-1.422l-1.403-0.779l0.779-1.402l-1.403-0.779l-1.568,2.825l-1.403-0.779
		l3.906-7.034l1.403,0.778l-1.568,2.826l1.403,0.779l-0.768,1.384l1.403,0.779l2.337-4.21l1.422,0.79L32.523,109.169z"/>
	<path fill="#FFFFFF" d="M5.485,77.931l-0.638-1.497l1.497-0.638l0.637,1.498L5.485,77.931z M7.602,78.75l-0.62-1.456l4.388-1.869
		l0.62,1.455L7.602,78.75z M11.37,75.425l-0.637-1.497l1.476-0.629l0.638,1.497L11.37,75.425z"/>
	<path fill="#FFFFFF" d="M10.431,64.638l0.129,1.577l-1.622,0.132l0.132,1.622l-1.6,0.131l0.131,1.6l1.6-0.132l0.13,1.6l1.622-0.132
		l0.127,1.566l-8.019,0.654l-0.128-1.566l4.798-0.391l-0.131-1.6l-1.577,0.128l-0.13-1.6L7.471,68.1l-0.132-1.622l-4.798,0.392
		l-0.129-1.577L10.431,64.638z"/>
	<path fill="#FFFFFF" d="M2.321,63.609l-0.347-4.802l1.601-0.115l0.231,3.201l1.634-0.117l-0.116-1.601l1.601-0.116L7.04,61.66
		l1.612-0.117l-0.231-3.201L10,58.228l0.347,4.801L2.321,63.609z"/>
	<path fill="#FFFFFF" d="M1.36,56.042l0.571-4.747l1.593,0.191l-0.382,3.175l1.626,0.196l0.576-4.791l1.571,0.189L6.34,55.047
		l1.593,0.191l0.576-4.791l1.583,0.19L9.327,57L1.36,56.042z M3.337,53.047l0.188-1.56l1.626,0.196l-0.188,1.56L3.337,53.047z
		 M6.722,51.872l0.195-1.615l1.593,0.191l-0.194,1.615L6.722,51.872z"/>
	<path fill="#FFFFFF" d="M4.984,46.211l-0.416,1.573l-1.573-0.416l0.416-1.573L4.984,46.211z M10.021,45.906l-0.404,1.53
		l-4.632-1.225l0.404-1.53L10.021,45.906z M11.157,47.843l-0.41,1.552l-1.551-0.41l0.41-1.551L11.157,47.843z"/>
	<path fill="#FFFFFF" d="M4.938,39.171l0.992-3.029l1.546,0.506l-0.492,1.504l4.564,1.495l0.493-1.504l1.493,0.489l-0.992,3.029
		L4.938,39.171z M7.477,36.649l0.493-1.504l4.564,1.494l-0.492,1.504L7.477,36.649z"/>
	<path fill="#FFFFFF" d="M7.981,31.785l2.678-4.001l1.333,0.893l-1.786,2.667l1.361,0.911l0.893-1.333l1.333,0.893l-0.893,1.333
		l1.343,0.898l1.785-2.667l1.315,0.88l-2.678,4.001L7.981,31.785z"/>
	<path fill="#FFFFFF" d="M11.571,26.421l2.678-4.001l1.334,0.893l-1.773,2.648l1.343,0.899l1.772-2.649l3.992,2.672l-2.678,4
		l-1.333-0.893l1.798-2.686l-1.343-0.898l-1.797,2.686L11.571,26.421z"/>
	<path fill="#FFFFFF" d="M15.292,20.713l0.984-1.268l6.338,4.92l-0.984,1.268L15.292,20.713z"/>
	<path fill="#FFFFFF" d="M18.394,17.093l5.125-3.902l0.985,1.295l-3.848,2.93l2.903,3.813l2.553-1.944l-0.959-1.259l-1.276,0.972
		l-0.972-1.276l2.571-1.958l2.903,3.813l-5.125,3.902L18.394,17.093z"/>
	<path fill="#FFFFFF" d="M24.753,12.223l1.294-0.986l0.985,1.294l1.277-0.972l0.972,1.277l1.277-0.972l-1.958-2.572l1.277-0.972
		l4.874,6.402l-1.276,0.972l-1.958-2.571l-1.276,0.972l-0.959-1.259l-1.276,0.972l2.916,3.83l-1.294,0.986L24.753,12.223z"/>
</g>
</svg>
