<?xml version="1.0" encoding="utf-8"?>
<!-- Generator: Adobe Illustrator 15.1.0, SVG Export Plug-In . SVG Version: 6.00 Build 0)  -->
<!DOCTYPE svg PUBLIC "-//W3C//DTD SVG 1.1//EN" "http://www.w3.org/Graphics/SVG/1.1/DTD/svg11.dtd">
<svg version="1.1" xmlns="http://www.w3.org/2000/svg" xmlns:xlink="http://www.w3.org/1999/xlink" x="0px" y="0px" width="1600px"
	 height="215px" viewBox="0 0 1600 215" enable-background="new 0 0 1600 215" xml:space="preserve">
<g id="Layer_2">
</g>
<g id="Layer_1">
	<path fill="#FFFFFF" d="M396,36.08l-7,3.67v54.1l-29.557-5.69l-22.963,19.53l0.968,30.08l24.119,17.98l29.196-7.67L403,120.55
		v-80.8L396,36.08z M367.877,144.81l-19.52-11.399l-0.03-22.86l19.48-11.47l19.52,11.4l0.03,22.869L367.877,144.81z"/>
	<path fill="#FFFFFF" d="M470.128,93.658l-29.644-5.209l-22.559,19.924l1.52,30.058l24.447,17.56l49.527-0.134l-8.892-35.773
		L470.128,93.658z M450.023,144.943l-19.715-11.062l-0.425-22.855l19.279-11.806l19.714,11.062l0.425,22.866L450.023,144.943z"/>
	<polygon fill="#FFFFFF" points="519.694,171.583 507.236,164.308 507.218,149.718 519.65,142.397 532.108,149.673 532.126,164.27 	
		"/>
	<path fill="#FFFFFF" d="M831.461,93.658l-29.644-5.209l-22.56,19.923l1.521,30.059l24.447,17.56l49.527-0.134l-8.892-35.773
		L831.461,93.658z M811.355,144.943l-19.715-11.062l-0.424-22.855l19.278-11.806l19.714,11.062l0.426,22.866L811.355,144.943z"/>
	<path fill="#FFFFFF" d="M695.286,136.249l-14.42,8.691l-19.83-11.061l-0.25-12.33l19.15,9.891l19.35-10.801l0.4-0.42l-0.009,0.203
		l0.089-0.094l0.06,0.041l0.21-0.08l11.61-6.26l-10.9-20.38l-29.64-5.2l-22.56,19.919l1.52,30.061l24.45,17.56l28.27-7.77
		l10.39-23.15L695.286,136.249z M699.315,110.27l0.1,0.061l-0.13-0.041L699.315,110.27z M679.706,99.22l17.7,9.979l0.18,0.101
		l0.01,0.01l1.5,0.96l0.18,0.131l-19.14,10.169l-19.56-9.579L679.706,99.22z"/>
	<path fill="#FFFFFF" d="M991.462,93.938l-29.644-5.209l-22.56,19.923l1.521,30.059l24.446,17.56l26.941-6.967l13.694-28.94
		L991.462,93.938z M971.356,145.224l-19.715-11.062l-0.425-22.855l19.278-11.806l19.715,11.062l0.425,22.866L971.356,145.224z"/>
	<path fill="#FFFFFF" d="M875.38,134.16l-0.43-22.859L894.229,99.5l32.03,16.35L914.25,94l-28.7-5.27L863,108.65l1.521,30.06
		l24.439,17.56l25.54-0.279l10.979-26.939l-30.39,16.17L875.38,134.16z"/>
	<path fill="#FFFFFF" d="M729.09,96.55l0.02,0.01l0.02-0.01l0.02-0.04L729.09,96.55z M748.76,107.56l-0.03,0.02l0.13,0.04
		L748.76,107.56z M748.76,107.56l-0.03,0.02l0.13,0.04L748.76,107.56z M748.76,107.56l-0.03,0.02l0.13,0.04L748.76,107.56z"/>
	<path fill="#FFFFFF" d="M1051.14,119.85l-19.74-9.58l19-11.719l-0.05-0.01l0.04-0.04l34.8,20.12l-2.89-5.3l0.02-0.01l-10.899-20.38
		l-29.641-5.19l-0.029,0.02l-0.2-0.04l-22.56,19.92l0.369,7.331l28.66,14.43l2.59,1.33l10.558-5.893l0.104,0.119l0.229,12.68
		l-10.2,6.443l-3.16-1.76L1020,127.55l0.51,10.15l24.449,17.56l0.15-0.05l0.08,0.07l28.271-7.78l0.659-1.47l1.87-4.16l5.293-12.356
		l0.53-1.377l-21.701-13.149L1051.14,119.85z"/>
	<polygon fill="#FFFFFF" points="1105.694,169.583 1093.236,162.308 1093.218,147.718 1105.65,140.397 1118.107,147.673 
		1118.127,162.27 	"/>
	<path fill="#FFFFFF" d="M1252.285,135.53l-14.42,8.691l-20.053-11.284l-0.027-12.106l19.15,9.891l19.35-10.801l0.4-0.42
		l-0.01,0.203l0.09-0.094l0.061,0.041l0.209-0.08l11.61-6.26l-10.899-20.38l-29.641-5.2l-22.561,19.92l1.521,30.06l24.45,17.56
		l28.27-7.77l10.391-23.15L1252.285,135.53z M1256.315,109.551l0.101,0.06l-0.131-0.039L1256.315,109.551z M1236.705,98.501
		l17.701,9.98l0.18,0.1l0.01,0.01l1.5,0.96l0.18,0.13l-19.14,10.17l-19.56-9.58L1236.705,98.501z"/>
	<polygon fill="#FFFFFF" points="635,153 628.5,155.99 622,153 622,94 628.5,90.333 635,94 635,124.662 	"/>
	<path fill="#FFFFFF" d="M1160.14,120.85l-19.74-9.58l19-11.719l-0.05-0.011l0.04-0.04l34.8,20.12l-2.89-5.3l0.02-0.01
		L1180.42,93.93l-29.641-5.189l-0.029,0.02l-0.2-0.039l-22.56,19.92l0.369,7.33l28.66,14.43l2.59,1.33l10.558-5.893l0.104,0.119
		l0.229,12.68l-10.2,6.443l-3.16-1.76L1129,128.55l0.51,10.15l24.449,17.56l0.15-0.05l0.08,0.07l28.271-7.78l0.659-1.47l1.87-4.16
		l5.293-12.356l0.53-1.377l-21.701-13.149L1160.14,120.85z"/>
	<polygon fill="#FFFFFF" points="739,153 732,155.99 725,153 725,42 732,38.333 739,42 	"/>
	<polygon fill="#FFFFFF" points="628.685,82.432 621.479,78.223 621.468,69.783 628.659,65.549 635.866,69.757 635.876,78.201 	"/>
	<polygon fill="#FFFFFF" points="766,153 759,155.99 752,153 752,42 759,38.333 766,42 	"/>
	<path fill="#FFFFFF" d="M594.79,93.94l-29.64-5.21l-22.56,19.92l1.52,30.06l14.14,17.19l28.07,0.08L571,145.17l-16.03-11.01
		l-0.42-22.85L573.83,99.5l19.71,11.061l0.43,22.869L594,156h11.33l3.86-35.63L594.79,93.94z"/>
	<path fill="#FFFFFF" d="M559.185,137.769"/>
	<path fill="#FFFFFF" d="M574.405,147.543"/>
</g>
</svg>
